<?xml version="1.0" encoding="UTF-8" standalone="no"?>
<!-- Created with Inkscape (http://www.inkscape.org/) -->

<svg
   width="1920"
   height="1080"
   viewBox="0 0 507.99999 285.75"
   version="1.1"
   id="svg1"
   xml:space="preserve"
   inkscape:version="1.3.2 (091e20ef0f, 2023-11-25)"
   sodipodi:docname="here.svg"
   xmlns:inkscape="http://www.inkscape.org/namespaces/inkscape"
   xmlns:sodipodi="http://sodipodi.sourceforge.net/DTD/sodipodi-0.dtd"
   xmlns="http://www.w3.org/2000/svg"
   xmlns:svg="http://www.w3.org/2000/svg"><sodipodi:namedview
     id="namedview1"
     pagecolor="#ffffff"
     bordercolor="#000000"
     borderopacity="0.25"
     inkscape:showpageshadow="2"
     inkscape:pageopacity="0.0"
     inkscape:pagecheckerboard="0"
     inkscape:deskcolor="#d1d1d1"
     inkscape:document-units="mm"
     inkscape:zoom="0.51522789"
     inkscape:cx="707.45394"
     inkscape:cy="814.20282"
     inkscape:window-width="1536"
     inkscape:window-height="795"
     inkscape:window-x="0"
     inkscape:window-y="0"
     inkscape:window-maximized="1"
     inkscape:current-layer="layer1" /><defs
     id="defs1"><filter
       id="filter0_i_18_14752"
       x="2.50189"
       y="1.67224"
       width="27.3188"
       height="28.4054"
       filterUnits="userSpaceOnUse"
       color-interpolation-filters="sRGB"><feFlood
         flood-opacity="0"
         result="BackgroundImageFix"
         id="feFlood31" /><feBlend
         mode="normal"
         in="SourceGraphic"
         in2="BackgroundImageFix"
         result="shape"
         id="feBlend31" /><feColorMatrix
         in="SourceAlpha"
         type="matrix"
         values="0 0 0 0 0 0 0 0 0 0 0 0 0 0 0 0 0 0 127 0"
         result="hardAlpha"
         id="feColorMatrix31" /><feOffset
         dx="0.25"
         dy="-0.25"
         id="feOffset31" /><feGaussianBlur
         stdDeviation="0.25"
         id="feGaussianBlur31" /><feComposite
         in2="hardAlpha"
         operator="arithmetic"
         k2="-1"
         k3="1"
         id="feComposite31" /><feColorMatrix
         type="matrix"
         values="0 0 0 0 0.85098 0 0 0 0 0.447059 0 0 0 0 0.196078 0 0 0 1 0"
         id="feColorMatrix32" /><feBlend
         mode="normal"
         in2="shape"
         result="effect1_innerShadow_18_14752"
         id="feBlend32" /></filter><filter
       id="filter1_d_18_14752"
       x="4.69333"
       y="5.23145"
       width="22.0859"
       height="22.086"
       filterUnits="userSpaceOnUse"
       color-interpolation-filters="sRGB"><feFlood
         flood-opacity="0"
         result="BackgroundImageFix"
         id="feFlood32" /><feColorMatrix
         in="SourceAlpha"
         type="matrix"
         values="0 0 0 0 0 0 0 0 0 0 0 0 0 0 0 0 0 0 127 0"
         result="hardAlpha"
         id="feColorMatrix33" /><feOffset
         dx="-0.3"
         dy="0.3"
         id="feOffset33" /><feGaussianBlur
         stdDeviation="0.15"
         id="feGaussianBlur33" /><feComposite
         in2="hardAlpha"
         operator="out"
         id="feComposite33" /><feColorMatrix
         type="matrix"
         values="0 0 0 0 0.921569 0 0 0 0 0.47451 0 0 0 0 0.133333 0 0 0 1 0"
         id="feColorMatrix34" /><feBlend
         mode="normal"
         in2="BackgroundImageFix"
         result="effect1_dropShadow_18_14752"
         id="feBlend34" /><feBlend
         mode="normal"
         in="SourceGraphic"
         in2="effect1_dropShadow_18_14752"
         result="shape"
         id="feBlend35" /></filter><filter
       id="filter2_f_18_14752"
       x="5.96625"
       y="13.1198"
       width="6.91998"
       height="6.92004"
       filterUnits="userSpaceOnUse"
       color-interpolation-filters="sRGB"><feFlood
         flood-opacity="0"
         result="BackgroundImageFix"
         id="feFlood35" /><feBlend
         mode="normal"
         in="SourceGraphic"
         in2="BackgroundImageFix"
         result="shape"
         id="feBlend36" /><feGaussianBlur
         stdDeviation="0.25"
         result="effect1_foregroundBlur_18_14752"
         id="feGaussianBlur36" /></filter><filter
       id="filter3_f_18_14752"
       x="19.1863"
       y="13.1198"
       width="6.91998"
       height="6.92004"
       filterUnits="userSpaceOnUse"
       color-interpolation-filters="sRGB"><feFlood
         flood-opacity="0"
         result="BackgroundImageFix"
         id="feFlood36" /><feBlend
         mode="normal"
         in="SourceGraphic"
         in2="BackgroundImageFix"
         result="shape"
         id="feBlend37" /><feGaussianBlur
         stdDeviation="0.25"
         result="effect1_foregroundBlur_18_14752"
         id="feGaussianBlur37" /></filter><filter
       id="filter4_f_18_14752"
       x="10.3513"
       y="17.371"
       width="11.37"
       height="4.33752"
       filterUnits="userSpaceOnUse"
       color-interpolation-filters="sRGB"><feFlood
         flood-opacity="0"
         result="BackgroundImageFix"
         id="feFlood37" /><feBlend
         mode="normal"
         in="SourceGraphic"
         in2="BackgroundImageFix"
         result="shape"
         id="feBlend38" /><feGaussianBlur
         stdDeviation="0.25"
         result="effect1_foregroundBlur_18_14752"
         id="feGaussianBlur38" /></filter><filter
       id="filter5_i_18_14752"
       x="11.1063"
       y="17.2498"
       width="10.62"
       height="3.58752"
       filterUnits="userSpaceOnUse"
       color-interpolation-filters="sRGB"><feFlood
         flood-opacity="0"
         result="BackgroundImageFix"
         id="feFlood38" /><feBlend
         mode="normal"
         in="SourceGraphic"
         in2="BackgroundImageFix"
         result="shape"
         id="feBlend39" /><feColorMatrix
         in="SourceAlpha"
         type="matrix"
         values="0 0 0 0 0 0 0 0 0 0 0 0 0 0 0 0 0 0 127 0"
         result="hardAlpha"
         id="feColorMatrix39" /><feOffset
         dx="0.25"
         dy="-0.25"
         id="feOffset39" /><feGaussianBlur
         stdDeviation="0.5"
         id="feGaussianBlur39" /><feComposite
         in2="hardAlpha"
         operator="arithmetic"
         k2="-1"
         k3="1"
         id="feComposite39" /><feColorMatrix
         type="matrix"
         values="0 0 0 0 0.203922 0 0 0 0 0.168627 0 0 0 0 0.180392 0 0 0 1 0"
         id="feColorMatrix40" /><feBlend
         mode="normal"
         in2="shape"
         result="effect1_innerShadow_18_14752"
         id="feBlend40" /></filter><filter
       id="filter6_i_18_14752"
       x="7.60626"
       y="7.92969"
       width="4.22998"
       height="4.22998"
       filterUnits="userSpaceOnUse"
       color-interpolation-filters="sRGB"><feFlood
         flood-opacity="0"
         result="BackgroundImageFix"
         id="feFlood40" /><feBlend
         mode="normal"
         in="SourceGraphic"
         in2="BackgroundImageFix"
         result="shape"
         id="feBlend41" /><feColorMatrix
         in="SourceAlpha"
         type="matrix"
         values="0 0 0 0 0 0 0 0 0 0 0 0 0 0 0 0 0 0 127 0"
         result="hardAlpha"
         id="feColorMatrix41" /><feOffset
         dx="0.25"
         dy="-0.25"
         id="feOffset41" /><feGaussianBlur
         stdDeviation="0.25"
         id="feGaussianBlur41" /><feComposite
         in2="hardAlpha"
         operator="arithmetic"
         k2="-1"
         k3="1"
         id="feComposite41" /><feColorMatrix
         type="matrix"
         values="0 0 0 0 0.239216 0 0 0 0 0.156863 0 0 0 0 0.172549 0 0 0 1 0"
         id="feColorMatrix42" /><feBlend
         mode="normal"
         in2="shape"
         result="effect1_innerShadow_18_14752"
         id="feBlend42" /></filter><filter
       id="filter7_f_18_14752"
       x="20.3427"
       y="7.93311"
       width="4.84369"
       height="4.84375"
       filterUnits="userSpaceOnUse"
       color-interpolation-filters="sRGB"><feFlood
         flood-opacity="0"
         result="BackgroundImageFix"
         id="feFlood42" /><feBlend
         mode="normal"
         in="SourceGraphic"
         in2="BackgroundImageFix"
         result="shape"
         id="feBlend43" /><feGaussianBlur
         stdDeviation="0.25"
         result="effect1_foregroundBlur_18_14752"
         id="feGaussianBlur43" /></filter><filter
       id="filter8_i_18_14752"
       x="20.9662"
       y="8.02969"
       width="4.12998"
       height="4.12998"
       filterUnits="userSpaceOnUse"
       color-interpolation-filters="sRGB"><feFlood
         flood-opacity="0"
         result="BackgroundImageFix"
         id="feFlood43" /><feBlend
         mode="normal"
         in="SourceGraphic"
         in2="BackgroundImageFix"
         result="shape"
         id="feBlend44" /><feColorMatrix
         in="SourceAlpha"
         type="matrix"
         values="0 0 0 0 0 0 0 0 0 0 0 0 0 0 0 0 0 0 127 0"
         result="hardAlpha"
         id="feColorMatrix44" /><feOffset
         dx="0.15"
         dy="-0.15"
         id="feOffset44" /><feGaussianBlur
         stdDeviation="0.25"
         id="feGaussianBlur44" /><feComposite
         in2="hardAlpha"
         operator="arithmetic"
         k2="-1"
         k3="1"
         id="feComposite44" /><feColorMatrix
         type="matrix"
         values="0 0 0 0 0.270588 0 0 0 0 0.196078 0 0 0 0 0.192157 0 0 0 1 0"
         id="feColorMatrix45" /><feBlend
         mode="normal"
         in2="shape"
         result="effect1_innerShadow_18_14752"
         id="feBlend45" /></filter><filter
       id="filter9_f_18_14752"
       x="8.96041"
       y="11.0595"
       width="5.86146"
       height="3.524"
       filterUnits="userSpaceOnUse"
       color-interpolation-filters="sRGB"><feFlood
         flood-opacity="0"
         result="BackgroundImageFix"
         id="feFlood45" /><feBlend
         mode="normal"
         in="SourceGraphic"
         in2="BackgroundImageFix"
         result="shape"
         id="feBlend46" /><feGaussianBlur
         stdDeviation="0.2"
         result="effect1_foregroundBlur_18_14752"
         id="feGaussianBlur46" /></filter><filter
       id="filter10_f_18_14752"
       x="17.6198"
       y="11.0595"
       width="5.86146"
       height="3.524"
       filterUnits="userSpaceOnUse"
       color-interpolation-filters="sRGB"><feFlood
         flood-opacity="0"
         result="BackgroundImageFix"
         id="feFlood46" /><feBlend
         mode="normal"
         in="SourceGraphic"
         in2="BackgroundImageFix"
         result="shape"
         id="feBlend47" /><feGaussianBlur
         stdDeviation="0.2"
         result="effect1_foregroundBlur_18_14752"
         id="feGaussianBlur47" /></filter><filter
       id="filter11_i_18_14752"
       x="17.8961"
       y="11.0098"
       width="5.90043"
       height="3.11021"
       filterUnits="userSpaceOnUse"
       color-interpolation-filters="sRGB"><feFlood
         flood-opacity="0"
         result="BackgroundImageFix"
         id="feFlood47" /><feBlend
         mode="normal"
         in="SourceGraphic"
         in2="BackgroundImageFix"
         result="shape"
         id="feBlend48" /><feColorMatrix
         in="SourceAlpha"
         type="matrix"
         values="0 0 0 0 0 0 0 0 0 0 0 0 0 0 0 0 0 0 127 0"
         result="hardAlpha"
         id="feColorMatrix48" /><feOffset
         dx="0.4"
         dy="-0.15"
         id="feOffset48" /><feGaussianBlur
         stdDeviation="0.25"
         id="feGaussianBlur48" /><feComposite
         in2="hardAlpha"
         operator="arithmetic"
         k2="-1"
         k3="1"
         id="feComposite48" /><feColorMatrix
         type="matrix"
         values="0 0 0 0 0.298039 0 0 0 0 0.196078 0 0 0 0 0.235294 0 0 0 1 0"
         id="feColorMatrix49" /><feBlend
         mode="normal"
         in2="shape"
         result="effect1_innerShadow_18_14752"
         id="feBlend49" /></filter><filter
       id="filter12_f_18_14752"
       x="10.9911"
       y="17.3734"
       width="10.5657"
       height="3.58709"
       filterUnits="userSpaceOnUse"
       color-interpolation-filters="sRGB"><feFlood
         flood-opacity="0"
         result="BackgroundImageFix"
         id="feFlood49" /><feBlend
         mode="normal"
         in="SourceGraphic"
         in2="BackgroundImageFix"
         result="shape"
         id="feBlend50" /><feGaussianBlur
         stdDeviation="0.3"
         result="effect1_foregroundBlur_18_14752"
         id="feGaussianBlur50" /></filter><filter
       id="filter13_f_18_14752"
       x="20.9424"
       y="7.95254"
       width="4.16877"
       height="4.27803"
       filterUnits="userSpaceOnUse"
       color-interpolation-filters="sRGB"><feFlood
         flood-opacity="0"
         result="BackgroundImageFix"
         id="feFlood50" /><feBlend
         mode="normal"
         in="SourceGraphic"
         in2="BackgroundImageFix"
         result="shape"
         id="feBlend51" /><feGaussianBlur
         stdDeviation="0.2"
         result="effect1_foregroundBlur_18_14752"
         id="feGaussianBlur51" /></filter><filter
       id="filter14_f_18_14752"
       x="7.55178"
       y="8.38992"
       width="2.90321"
       height="3.79377"
       filterUnits="userSpaceOnUse"
       color-interpolation-filters="sRGB"><feFlood
         flood-opacity="0"
         result="BackgroundImageFix"
         id="feFlood51" /><feBlend
         mode="normal"
         in="SourceGraphic"
         in2="BackgroundImageFix"
         result="shape"
         id="feBlend52" /><feGaussianBlur
         stdDeviation="0.2"
         result="effect1_foregroundBlur_18_14752"
         id="feGaussianBlur52" /></filter><filter
       id="filter15_f_18_14752"
       x="10.7004"
       y="10.9972"
       width="4.2121"
       height="3.23804"
       filterUnits="userSpaceOnUse"
       color-interpolation-filters="sRGB"><feFlood
         flood-opacity="0"
         result="BackgroundImageFix"
         id="feFlood52" /><feBlend
         mode="normal"
         in="SourceGraphic"
         in2="BackgroundImageFix"
         result="shape"
         id="feBlend53" /><feGaussianBlur
         stdDeviation="0.25"
         result="effect1_foregroundBlur_18_14752"
         id="feGaussianBlur53" /></filter><filter
       id="filter16_f_18_14752"
       x="18.0021"
       y="11.111"
       width="5.5448"
       height="2.75183"
       filterUnits="userSpaceOnUse"
       color-interpolation-filters="sRGB"><feFlood
         flood-opacity="0"
         result="BackgroundImageFix"
         id="feFlood53" /><feBlend
         mode="normal"
         in="SourceGraphic"
         in2="BackgroundImageFix"
         result="shape"
         id="feBlend54" /><feGaussianBlur
         stdDeviation="0.25"
         result="effect1_foregroundBlur_18_14752"
         id="feGaussianBlur54" /></filter><linearGradient
       id="paint0_linear_18_14752"
       x1="24.38"
       y1="6.65025"
       x2="9.03"
       y2="26.2347"
       gradientUnits="userSpaceOnUse"><stop
         stop-color="#FC8B23"
         id="stop54" /><stop
         offset="1"
         stop-color="#E67639"
         id="stop55" /></linearGradient><radialGradient
       id="paint1_radial_18_14752"
       cx="0"
       cy="0"
       r="1"
       gradientUnits="userSpaceOnUse"
       gradientTransform="matrix(-2.8149065,2.5207979,-2.2241239,-2.4836187,18.6207,3.22067)"><stop
         offset="0.300161"
         stop-color="#FFA13A"
         id="stop56" /><stop
         offset="1"
         stop-color="#FFA13A"
         stop-opacity="0"
         id="stop57" /></radialGradient><radialGradient
       id="paint2_radial_18_14752"
       cx="0"
       cy="0"
       r="1"
       gradientUnits="userSpaceOnUse"
       gradientTransform="matrix(2.268727,5.5622593,-4.9076384,2.0017211,8.78952,2.0278)"><stop
         offset="0.300161"
         stop-color="#FF942A"
         id="stop58" /><stop
         offset="1"
         stop-color="#FF942A"
         stop-opacity="0"
         id="stop59" /></radialGradient><radialGradient
       id="paint3_radial_18_14752"
       cx="0"
       cy="0"
       r="1"
       gradientUnits="userSpaceOnUse"
       gradientTransform="matrix(-2.3107361,-0.6301956,0.87258804,-3.1995156,24.9227,7.63208)"><stop
         offset="0.300161"
         stop-color="#FFA13D"
         id="stop60" /><stop
         offset="1"
         stop-color="#FFA13D"
         stop-opacity="0"
         id="stop61" /></radialGradient><radialGradient
       id="paint4_radial_18_14752"
       cx="0"
       cy="0"
       r="1"
       gradientUnits="userSpaceOnUse"
       gradientTransform="matrix(-3.8232044,1.8486208,-1.3653444,-2.8237217,29.7542,11.1192)"><stop
         offset="0.300161"
         stop-color="#FFA13D"
         id="stop62" /><stop
         offset="1"
         stop-color="#FFA13D"
         stop-opacity="0"
         id="stop63" /></radialGradient><radialGradient
       id="paint5_radial_18_14752"
       cx="0"
       cy="0"
       r="1"
       gradientUnits="userSpaceOnUse"
       gradientTransform="matrix(-4.7054963,-0.54619232,0.30779895,-2.6517158,30.6785,18.3035)"><stop
         offset="0.300161"
         stop-color="#FFA13D"
         id="stop64" /><stop
         offset="1"
         stop-color="#FFA13D"
         stop-opacity="0"
         id="stop65" /></radialGradient><radialGradient
       id="paint6_radial_18_14752"
       cx="0"
       cy="0"
       r="1"
       gradientUnits="userSpaceOnUse"
       gradientTransform="matrix(3.0928328,-2.9829503,2.8737241,2.9795831,26.4352,23.8072)"><stop
         stop-color="#E0762A"
         id="stop66" /><stop
         offset="1"
         stop-color="#E0762A"
         stop-opacity="0"
         id="stop67" /></radialGradient><radialGradient
       id="paint7_radial_18_14752"
       cx="0"
       cy="0"
       r="1"
       gradientUnits="userSpaceOnUse"
       gradientTransform="matrix(-2.0166543,-2.6048268,2.5094421,-1.9428075,6.52079,22.7989)"><stop
         stop-color="#E0762A"
         id="stop68" /><stop
         offset="1"
         stop-color="#E0762A"
         stop-opacity="0"
         id="stop69" /></radialGradient><radialGradient
       id="paint8_radial_18_14752"
       cx="0"
       cy="0"
       r="1"
       gradientUnits="userSpaceOnUse"
       gradientTransform="matrix(3.0249655,1.4284545,-1.7264918,3.656104,2.02536,11.6654)"><stop
         stop-color="#F0851D"
         id="stop70" /><stop
         offset="1"
         stop-color="#F0851D"
         stop-opacity="0"
         id="stop71" /></radialGradient><radialGradient
       id="paint9_radial_18_14752"
       cx="0"
       cy="0"
       r="1"
       gradientUnits="userSpaceOnUse"
       gradientTransform="matrix(-3.0937376,-2.3750238,2.2406243,-2.918667,21.994,28.5782)"><stop
         offset="0.336586"
         stop-color="#E3745B"
         id="stop72" /><stop
         offset="1"
         stop-color="#E3745B"
         stop-opacity="0"
         id="stop73" /></radialGradient><radialGradient
       id="paint10_radial_18_14752"
       cx="0"
       cy="0"
       r="1"
       gradientUnits="userSpaceOnUse"
       gradientTransform="matrix(-11.30499,13.348324,-13.60213,-11.519944,22.1327,9.75055)"><stop
         offset="0.17178"
         stop-color="#FFD13D"
         id="stop74" /><stop
         offset="1"
         stop-color="#DCA21C"
         id="stop75" /></radialGradient><radialGradient
       id="paint11_radial_18_14752"
       cx="0"
       cy="0"
       r="1"
       gradientUnits="userSpaceOnUse"
       gradientTransform="matrix(3.21084,0,0,3.21084,9.42145,16.5754)"><stop
         offset="0.25"
         stop-color="#ED501F"
         id="stop76" /><stop
         offset="0.89541"
         stop-color="#F18A42"
         stop-opacity="0"
         id="stop77" /></radialGradient><radialGradient
       id="paint12_radial_18_14752"
       cx="0"
       cy="0"
       r="1"
       gradientUnits="userSpaceOnUse"
       gradientTransform="matrix(3.21084,0,0,3.21084,22.6415,16.5754)"><stop
         offset="0.130208"
         stop-color="#FB6738"
         id="stop78" /><stop
         offset="0.89541"
         stop-color="#F18A42"
         stop-opacity="0"
         id="stop79" /></radialGradient><linearGradient
       id="paint13_linear_18_14752"
       x1="11.1072"
       y1="19.1637"
       x2="21.4749"
       y2="19.1637"
       gradientUnits="userSpaceOnUse"><stop
         stop-color="#31243C"
         id="stop80" /><stop
         offset="1"
         stop-color="#3F2950"
         id="stop81" /></linearGradient><linearGradient
       id="paint14_linear_18_14752"
       x1="21.4763"
       y1="17.9119"
       x2="20.8705"
       y2="18.4744"
       gradientUnits="userSpaceOnUse"><stop
         stop-color="#665C6D"
         id="stop82" /><stop
         offset="1"
         stop-color="#665C6D"
         stop-opacity="0"
         id="stop83" /></linearGradient><radialGradient
       id="paint15_radial_18_14752"
       cx="0"
       cy="0"
       r="1"
       gradientUnits="userSpaceOnUse"
       gradientTransform="matrix(-0.68446596,0.89062864,-0.89062864,-0.68446596,11.5863,8.55243)"><stop
         stop-color="#59525C"
         id="stop84" /><stop
         offset="1"
         stop-color="#59525C"
         stop-opacity="0"
         id="stop85" /></radialGradient><linearGradient
       id="paint16_linear_18_14752"
       x1="9.27214"
       y1="12.6388"
       x2="14.7767"
       y2="12.6388"
       gradientUnits="userSpaceOnUse"><stop
         stop-color="#2E2931"
         id="stop86" /><stop
         offset="1"
         stop-color="#362A3F"
         id="stop87" /></linearGradient><linearGradient
       id="paint17_linear_18_14752"
       x1="11.6459"
       y1="17.7217"
       x2="16.274"
       y2="20.0605"
       gradientUnits="userSpaceOnUse"><stop
         stop-color="#4E4753"
         id="stop88" /><stop
         offset="1"
         stop-color="#4E4753"
         stop-opacity="0"
         id="stop89" /></linearGradient><linearGradient
       id="paint18_linear_18_14752"
       x1="21.2699"
       y1="17.5685"
       x2="15.569"
       y2="20.3883"
       gradientUnits="userSpaceOnUse"><stop
         offset="0.0897352"
         stop-color="#5E5468"
         id="stop90" /><stop
         offset="1"
         stop-color="#5E5468"
         stop-opacity="0"
         id="stop91" /></linearGradient><linearGradient
       id="paint19_linear_18_14752"
       x1="21.1987"
       y1="8.42749"
       x2="23.4487"
       y2="9.86499"
       gradientUnits="userSpaceOnUse"><stop
         stop-color="#60556A"
         id="stop92" /><stop
         offset="1"
         stop-color="#60556A"
         stop-opacity="0"
         id="stop93" /></linearGradient><linearGradient
       id="paint20_linear_18_14752"
       x1="24.683"
       y1="11.2244"
       x2="22.7455"
       y2="7.97437"
       gradientUnits="userSpaceOnUse"><stop
         stop-color="#5D4F69"
         id="stop94" /><stop
         offset="1"
         stop-color="#5D4F69"
         stop-opacity="0"
         id="stop95" /></linearGradient><linearGradient
       id="paint21_linear_18_14752"
       x1="8.38617"
       y1="11.9275"
       x2="8.48586"
       y2="8.94733"
       gradientUnits="userSpaceOnUse"><stop
         stop-color="#524D53"
         id="stop96" /><stop
         offset="1"
         stop-color="#524D53"
         stop-opacity="0"
         id="stop97" /></linearGradient><linearGradient
       id="paint22_linear_18_14752"
       x1="13.4566"
       y1="13.4852"
       x2="11.0503"
       y2="13.1152"
       gradientUnits="userSpaceOnUse"><stop
         stop-color="#524D53"
         id="stop98" /><stop
         offset="1"
         stop-color="#5C5463"
         stop-opacity="0"
         id="stop99" /></linearGradient><linearGradient
       id="paint23_linear_18_14752"
       x1="21.649"
       y1="13.315"
       x2="18.1009"
       y2="12.8039"
       gradientUnits="userSpaceOnUse"><stop
         stop-color="#61556C"
         id="stop100" /><stop
         offset="1"
         stop-color="#554A5F"
         id="stop101" /></linearGradient><filter
       id="filter0_ii_18_14578"
       x="7.22144"
       y="1.5144"
       width="20.0286"
       height="28.4856"
       filterUnits="userSpaceOnUse"
       color-interpolation-filters="sRGB"><feFlood
         flood-opacity="0"
         result="BackgroundImageFix"
         id="feFlood31-3" /><feBlend
         mode="normal"
         in="SourceGraphic"
         in2="BackgroundImageFix"
         result="shape"
         id="feBlend31-6" /><feColorMatrix
         in="SourceAlpha"
         type="matrix"
         values="0 0 0 0 0 0 0 0 0 0 0 0 0 0 0 0 0 0 127 0"
         result="hardAlpha"
         id="feColorMatrix31-7" /><feOffset
         dy="-0.5"
         id="feOffset31-5" /><feGaussianBlur
         stdDeviation="0.5"
         id="feGaussianBlur31-3" /><feComposite
         in2="hardAlpha"
         operator="arithmetic"
         k2="-1"
         k3="1"
         id="feComposite31-5" /><feColorMatrix
         type="matrix"
         values="0 0 0 0 0.803922 0 0 0 0 0.482353 0 0 0 0 0.407843 0 0 0 1 0"
         id="feColorMatrix32-6" /><feBlend
         mode="normal"
         in2="shape"
         result="effect1_innerShadow_18_14578"
         id="feBlend32-2" /><feColorMatrix
         in="SourceAlpha"
         type="matrix"
         values="0 0 0 0 0 0 0 0 0 0 0 0 0 0 0 0 0 0 127 0"
         result="hardAlpha"
         id="feColorMatrix33-9" /><feOffset
         dx="0.25"
         id="feOffset33-1" /><feGaussianBlur
         stdDeviation="0.25"
         id="feGaussianBlur33-2" /><feComposite
         in2="hardAlpha"
         operator="arithmetic"
         k2="-1"
         k3="1"
         id="feComposite33-7" /><feColorMatrix
         type="matrix"
         values="0 0 0 0 0.8 0 0 0 0 0.615686 0 0 0 0 0.321569 0 0 0 1 0"
         id="feColorMatrix34-0" /><feBlend
         mode="normal"
         in2="effect1_innerShadow_18_14578"
         result="effect2_innerShadow_18_14578"
         id="feBlend34-9" /></filter><filter
       id="filter1_f_18_14578"
       x="12.7165"
       y="23.7127"
       width="5.67997"
       height="5.68003"
       filterUnits="userSpaceOnUse"
       color-interpolation-filters="sRGB"><feFlood
         flood-opacity="0"
         result="BackgroundImageFix"
         id="feFlood34" /><feBlend
         mode="normal"
         in="SourceGraphic"
         in2="BackgroundImageFix"
         result="shape"
         id="feBlend35-3" /><feGaussianBlur
         stdDeviation="0.1"
         result="effect1_foregroundBlur_18_14578"
         id="feGaussianBlur35" /></filter><filter
       id="filter2_f_18_14578"
       x="17.5864"
       y="4.57268"
       width="4.04"
       height="4.04006"
       filterUnits="userSpaceOnUse"
       color-interpolation-filters="sRGB"><feFlood
         flood-opacity="0"
         result="BackgroundImageFix"
         id="feFlood35-6" /><feBlend
         mode="normal"
         in="SourceGraphic"
         in2="BackgroundImageFix"
         result="shape"
         id="feBlend36-0" /><feGaussianBlur
         stdDeviation="0.15"
         result="effect1_foregroundBlur_18_14578"
         id="feGaussianBlur36-6" /></filter><filter
       id="filter3_d_18_14578"
       x="14.0364"
       y="5.02271"
       width="11.14"
       height="11.14"
       filterUnits="userSpaceOnUse"
       color-interpolation-filters="sRGB"><feFlood
         flood-opacity="0"
         result="BackgroundImageFix"
         id="feFlood36-2" /><feColorMatrix
         in="SourceAlpha"
         type="matrix"
         values="0 0 0 0 0 0 0 0 0 0 0 0 0 0 0 0 0 0 127 0"
         result="hardAlpha"
         id="feColorMatrix36" /><feOffset
         dy="4"
         id="feOffset36" /><feGaussianBlur
         stdDeviation="2"
         id="feGaussianBlur37-6" /><feComposite
         in2="hardAlpha"
         operator="out"
         id="feComposite37" /><feColorMatrix
         type="matrix"
         values="0 0 0 0 0 0 0 0 0 0 0 0 0 0 0 0 0 0 0.25 0"
         id="feColorMatrix37" /><feBlend
         mode="normal"
         in2="BackgroundImageFix"
         result="effect1_dropShadow_18_14578"
         id="feBlend37-1" /><feBlend
         mode="normal"
         in="SourceGraphic"
         in2="effect1_dropShadow_18_14578"
         result="shape"
         id="feBlend38-8" /></filter><filter
       id="filter4_f_18_14578"
       x="15.7305"
       y="17.6927"
       width="4.25006"
       height="4.03003"
       filterUnits="userSpaceOnUse"
       color-interpolation-filters="sRGB"><feFlood
         flood-opacity="0"
         result="BackgroundImageFix"
         id="feFlood38-7" /><feBlend
         mode="normal"
         in="SourceGraphic"
         in2="BackgroundImageFix"
         result="shape"
         id="feBlend39-9" /><feGaussianBlur
         stdDeviation="0.25"
         result="effect1_foregroundBlur_18_14578"
         id="feGaussianBlur39-2" /></filter><filter
       id="filter5_f_18_14578"
       x="20.5231"
       y="7.89556"
       width="4.3085"
       height="4.53994"
       filterUnits="userSpaceOnUse"
       color-interpolation-filters="sRGB"><feFlood
         flood-opacity="0"
         result="BackgroundImageFix"
         id="feFlood39" /><feBlend
         mode="normal"
         in="SourceGraphic"
         in2="BackgroundImageFix"
         result="shape"
         id="feBlend40-0" /><feGaussianBlur
         stdDeviation="0.15"
         result="effect1_foregroundBlur_18_14578"
         id="feGaussianBlur40" /></filter><filter
       id="filter6_i_18_14578"
       x="20.8665"
       y="7.90249"
       width="4.12998"
       height="4.12998"
       filterUnits="userSpaceOnUse"
       color-interpolation-filters="sRGB"><feFlood
         flood-opacity="0"
         result="BackgroundImageFix"
         id="feFlood40-2" /><feBlend
         mode="normal"
         in="SourceGraphic"
         in2="BackgroundImageFix"
         result="shape"
         id="feBlend41-3" /><feColorMatrix
         in="SourceAlpha"
         type="matrix"
         values="0 0 0 0 0 0 0 0 0 0 0 0 0 0 0 0 0 0 127 0"
         result="hardAlpha"
         id="feColorMatrix41-7" /><feOffset
         dx="0.15"
         dy="-0.15"
         id="feOffset41-5" /><feGaussianBlur
         stdDeviation="0.25"
         id="feGaussianBlur41-9" /><feComposite
         in2="hardAlpha"
         operator="arithmetic"
         k2="-1"
         k3="1"
         id="feComposite41-2" /><feColorMatrix
         type="matrix"
         values="0 0 0 0 0.258824 0 0 0 0 0.168627 0 0 0 0 0.188235 0 0 0 1 0"
         id="feColorMatrix42-2" /><feBlend
         mode="normal"
         in2="shape"
         result="effect1_innerShadow_18_14578"
         id="feBlend42-8" /></filter><filter
       id="filter7_f_18_14578"
       x="16.8561"
       y="10.8821"
       width="6.50043"
       height="3.96021"
       filterUnits="userSpaceOnUse"
       color-interpolation-filters="sRGB"><feFlood
         flood-opacity="0"
         result="BackgroundImageFix"
         id="feFlood42-9" /><feBlend
         mode="normal"
         in="SourceGraphic"
         in2="BackgroundImageFix"
         result="shape"
         id="feBlend43-7" /><feGaussianBlur
         stdDeviation="0.25"
         result="effect1_foregroundBlur_18_14578"
         id="feGaussianBlur43-3" /></filter><filter
       id="filter8_f_18_14578"
       x="20.9492"
       y="7.94714"
       width="3.99377"
       height="3.96313"
       filterUnits="userSpaceOnUse"
       color-interpolation-filters="sRGB"><feFlood
         flood-opacity="0"
         result="BackgroundImageFix"
         id="feFlood43-6" /><feBlend
         mode="normal"
         in="SourceGraphic"
         in2="BackgroundImageFix"
         result="shape"
         id="feBlend44-1" /><feGaussianBlur
         stdDeviation="0.125"
         result="effect1_foregroundBlur_18_14578"
         id="feGaussianBlur44-2" /></filter><filter
       id="filter9_f_18_14578"
       x="17.8148"
       y="11.0451"
       width="5.32509"
       height="2.93708"
       filterUnits="userSpaceOnUse"
       color-interpolation-filters="sRGB"><feFlood
         flood-opacity="0"
         result="BackgroundImageFix"
         id="feFlood44" /><feBlend
         mode="normal"
         in="SourceGraphic"
         in2="BackgroundImageFix"
         result="shape"
         id="feBlend45-9" /><feGaussianBlur
         stdDeviation="0.2"
         result="effect1_foregroundBlur_18_14578"
         id="feGaussianBlur45" /></filter><filter
       id="filter10_f_18_14578"
       x="16.7453"
       y="17.8722"
       width="3.13832"
       height="3.1468"
       filterUnits="userSpaceOnUse"
       color-interpolation-filters="sRGB"><feFlood
         flood-opacity="0"
         result="BackgroundImageFix"
         id="feFlood45-3" /><feBlend
         mode="normal"
         in="SourceGraphic"
         in2="BackgroundImageFix"
         result="shape"
         id="feBlend46-1" /><feGaussianBlur
         stdDeviation="0.2"
         result="effect1_foregroundBlur_18_14578"
         id="feGaussianBlur46-9" /></filter><radialGradient
       id="paint0_radial_18_14578"
       cx="0"
       cy="0"
       r="1"
       gradientUnits="userSpaceOnUse"
       gradientTransform="matrix(-6.6249132,20.555275,-14.52732,-4.6821187,20.5085,9.4447)"><stop
         stop-color="#FFC65D"
         id="stop46" /><stop
         offset="1"
         stop-color="#FFAE4E"
         id="stop47" /></radialGradient><radialGradient
       id="paint1_radial_18_14578"
       cx="0"
       cy="0"
       r="1"
       gradientUnits="userSpaceOnUse"
       gradientTransform="matrix(12.798347,-5.1866987,2.5912948,6.394104,8.32595,28.2297)"><stop
         stop-color="#FFC050"
         id="stop48" /><stop
         offset="1"
         stop-color="#FFC050"
         stop-opacity="0"
         id="stop49" /></radialGradient><radialGradient
       id="paint2_radial_18_14578"
       cx="0"
       cy="0"
       r="1"
       gradientUnits="userSpaceOnUse"
       gradientTransform="matrix(-4.8257677,-8.4061816,11.052102,-6.344721,23.171,26.2347)"><stop
         stop-color="#FFA454"
         id="stop50" /><stop
         offset="1"
         stop-color="#FFA454"
         stop-opacity="0"
         id="stop51" /></radialGradient><radialGradient
       id="paint3_radial_18_14578"
       cx="0"
       cy="0"
       r="1"
       gradientUnits="userSpaceOnUse"
       gradientTransform="matrix(18.215609,-12.552692,12.958576,18.804601,7.75851,20.5072)"><stop
         offset="0.774146"
         stop-color="#FFF29E"
         stop-opacity="0"
         id="stop52" /><stop
         offset="1"
         stop-color="#FFF29E"
         id="stop53" /></radialGradient><radialGradient
       id="paint4_radial_18_14578"
       cx="0"
       cy="0"
       r="1"
       gradientUnits="userSpaceOnUse"
       gradientTransform="matrix(-2.3124979,-0.87501955,0.95649425,-2.5278189,23.1648,16.1947)"><stop
         stop-color="#FF9D5A"
         id="stop54-4" /><stop
         offset="1"
         stop-color="#FF9D5A"
         stop-opacity="0"
         id="stop55-7" /></radialGradient><radialGradient
       id="paint5_radial_18_14578"
       cx="0"
       cy="0"
       r="1"
       gradientUnits="userSpaceOnUse"
       gradientTransform="matrix(1.6045446,-3.4999802,13.759756,6.3080763,16.276262,1.2947828)"><stop
         offset="0.169368"
         stop-color="#FABF62"
         id="stop56-8" /><stop
         offset="1"
         stop-color="#FFDF81"
         id="stop57-4" /></radialGradient><radialGradient
       id="paint6_radial_18_14578"
       cx="0"
       cy="0"
       r="1"
       gradientUnits="userSpaceOnUse"
       gradientTransform="matrix(-2.0156164,2.2031307,-3.4094832,-3.1192931,16.834574,-0.47803102)"><stop
         offset="0.86124"
         stop-color="#FFD678"
         stop-opacity="0"
         id="stop58-5" /><stop
         offset="1"
         stop-color="#FFD678"
         id="stop59-0" /></radialGradient><radialGradient
       id="paint7_radial_18_14578"
       cx="0"
       cy="0"
       r="1"
       gradientUnits="userSpaceOnUse"
       gradientTransform="matrix(1.062498,3.088257,-5.3332649,1.8348808,17.745658,-0.75220011)"><stop
         offset="0.835085"
         stop-color="#FFCB6E"
         stop-opacity="0"
         id="stop60-3" /><stop
         offset="0.978655"
         stop-color="#FFCB6E"
         id="stop61-6" /></radialGradient><radialGradient
       id="paint8_radial_18_14578"
       cx="0"
       cy="0"
       r="1"
       gradientUnits="userSpaceOnUse"
       gradientTransform="matrix(-3.4602915,3.1874786,-3.6048162,-3.9133486,27,15.5383)"><stop
         stop-color="#FFDB7D"
         id="stop62-1" /><stop
         offset="1"
         stop-color="#FFC46D"
         id="stop63-0" /></radialGradient><radialGradient
       id="paint9_radial_18_14578"
       cx="0"
       cy="0"
       r="1"
       gradientUnits="userSpaceOnUse"
       gradientTransform="matrix(3.093749,0.53124976,-0.75663188,4.4062686,22.6335,14.0487)"><stop
         stop-color="#FFA566"
         id="stop64-6" /><stop
         offset="1"
         stop-color="#FFA566"
         stop-opacity="0"
         id="stop65-3" /></radialGradient><radialGradient
       id="paint10_radial_18_14578"
       cx="0"
       cy="0"
       r="1"
       gradientUnits="userSpaceOnUse"
       gradientTransform="matrix(-3.1562726,2.6562282,-2.7850268,-3.3093181,26.7273,16.980436)"><stop
         offset="0.801733"
         stop-color="#FFDA83"
         stop-opacity="0"
         id="stop66-2" /><stop
         offset="0.960633"
         stop-color="#FFDA83"
         id="stop67-0" /></radialGradient><radialGradient
       id="paint11_radial_18_14578"
       cx="0"
       cy="0"
       r="1"
       gradientUnits="userSpaceOnUse"
       gradientTransform="matrix(-2.6719113,-4.9374763,4.2521044,-2.3010228,27.2585,19.0383)"><stop
         offset="0.915451"
         stop-color="#E8A051"
         stop-opacity="0"
         id="stop68-6" /><stop
         offset="0.979581"
         stop-color="#E8A051"
         id="stop69-1" /></radialGradient><linearGradient
       id="paint12_linear_18_14578"
       x1="17.4695"
       y1="24.5807"
       x2="13.6362"
       y2="28.5503"
       gradientUnits="userSpaceOnUse"><stop
         stop-color="#F49D4C"
         id="stop70-5" /><stop
         offset="1"
         stop-color="#FFCF5D"
         id="stop71-5" /></linearGradient><linearGradient
       id="paint13_linear_18_14578"
       x1="17.5279"
       y1="25.0672"
       x2="13.0165"
       y2="28.4447"
       gradientUnits="userSpaceOnUse"
       gradientTransform="translate(2.5567387)"><stop
         offset="0.271965"
         stop-color="#FAA660"
         id="stop72-4" /><stop
         offset="1"
         stop-color="#FFBF66"
         id="stop73-7" /></linearGradient><radialGradient
       id="paint14_radial_18_14578"
       cx="0"
       cy="0"
       r="1"
       gradientUnits="userSpaceOnUse"
       gradientTransform="matrix(-4.3632471,2.8439309,-3.1018655,-4.7589783,17.737,25.2066)"><stop
         offset="0.805181"
         stop-color="#FFE596"
         stop-opacity="0"
         id="stop74-6" /><stop
         offset="0.958261"
         stop-color="#FFE596"
         id="stop75-5" /></radialGradient><radialGradient
       id="paint15_radial_18_14578"
       cx="0"
       cy="0"
       r="1"
       gradientUnits="userSpaceOnUse"
       gradientTransform="matrix(4.3587599,-3.2690702,2.8475582,3.7967439,13.4416,28.198964)"><stop
         offset="0.805714"
         stop-color="#D78555"
         stop-opacity="0"
         id="stop76-6" /><stop
         offset="0.976429"
         stop-color="#D78555"
         id="stop77-9" /></radialGradient><linearGradient
       id="paint16_linear_18_14578"
       x1="17.696"
       y1="5.2572"
       x2="21.1764"
       y2="7.6947"
       gradientUnits="userSpaceOnUse"><stop
         stop-color="#FFE07C"
         id="stop78-3" /><stop
         offset="1"
         stop-color="#FFCA66"
         id="stop79-7" /></linearGradient><radialGradient
       id="paint17_radial_18_14578"
       cx="0"
       cy="0"
       r="1"
       gradientUnits="userSpaceOnUse"
       gradientTransform="matrix(3.0487265,-0.84988343,0.84988343,3.0487265,18.446,6.85095)"><stop
         stop-color="#FFEC9D"
         id="stop80-4" /><stop
         offset="0.777273"
         stop-color="#F8BC5B"
         id="stop81-5" /></radialGradient><radialGradient
       id="paint18_radial_18_14578"
       cx="0"
       cy="0"
       r="1"
       gradientUnits="userSpaceOnUse"
       gradientTransform="matrix(1.546875,-0.9531257,0.9531257,1.546875,19.4304,6.71033)"><stop
         offset="0.878938"
         stop-color="#DDA64B"
         stop-opacity="0"
         id="stop82-2" /><stop
         offset="1"
         stop-color="#DDA64B"
         id="stop83-5" /></radialGradient><radialGradient
       id="paint19_radial_18_14578"
       cx="0"
       cy="0"
       r="1"
       gradientUnits="userSpaceOnUse"
       gradientTransform="matrix(1.9062518,-1.2500027,1.5323246,2.336792,19.1335,6.91345)"><stop
         offset="0.652885"
         stop-color="#DDA64B"
         stop-opacity="0"
         id="stop84-4" /><stop
         offset="1"
         stop-color="#DDA64B"
         id="stop85-7" /></radialGradient><linearGradient
       id="paint20_linear_18_14578"
       x1="18.8155"
       y1="18.9212"
       x2="16.2305"
       y2="21.2228"
       gradientUnits="userSpaceOnUse"><stop
         stop-color="#BE8435"
         id="stop86-4" /><stop
         offset="1"
         stop-color="#BF7A37"
         id="stop87-4" /></linearGradient><radialGradient
       id="paint21_radial_18_14578"
       cx="0"
       cy="0"
       r="1"
       gradientUnits="userSpaceOnUse"
       gradientTransform="matrix(2.327639,-1.950153,1.3065391,1.5594425,17.4299,21.0826)"><stop
         stop-color="#301E3A"
         id="stop88-3" /><stop
         offset="1"
         stop-color="#332E2C"
         id="stop89-0" /></radialGradient><linearGradient
       id="paint22_linear_18_14578"
       x1="20.4148"
       y1="8.05249"
       x2="24.3054"
       y2="9.56958"
       gradientUnits="userSpaceOnUse"><stop
         stop-color="#3B2D31"
         id="stop90-7" /><stop
         offset="1"
         stop-color="#3B2D31"
         stop-opacity="0"
         id="stop91-8" /></linearGradient><linearGradient
       id="paint23_linear_18_14578"
       x1="21.5085"
       y1="12.6477"
       x2="15.1648"
       y2="14.3423"
       gradientUnits="userSpaceOnUse"><stop
         stop-color="#A36231"
         id="stop92-6" /><stop
         offset="1"
         stop-color="#A36231"
         stop-opacity="0"
         id="stop93-8" /></linearGradient><radialGradient
       id="paint24_radial_18_14578"
       cx="0"
       cy="0"
       r="1"
       gradientUnits="userSpaceOnUse"
       gradientTransform="matrix(2.6093741,2.2499999,-4.1807663,4.8485261,19.4929,12.179)"><stop
         offset="0.776021"
         stop-color="#CD7F3F"
         stop-opacity="0"
         id="stop94-8" /><stop
         offset="1"
         stop-color="#CD7F3F"
         id="stop95-4" /></radialGradient><radialGradient
       id="paint25_radial_18_14578"
       cx="0"
       cy="0"
       r="1"
       gradientUnits="userSpaceOnUse"
       gradientTransform="matrix(0,-2.15625,6.11501,0,20.4263,13.3666)"><stop
         offset="0.398551"
         stop-color="#3D2A48"
         id="stop96-3" /><stop
         offset="1"
         stop-color="#3B302E"
         id="stop97-1" /></radialGradient><linearGradient
       id="paint26_linear_18_14578"
       x1="21.1179"
       y1="8.43686"
       x2="24.6492"
       y2="11.6712"
       gradientUnits="userSpaceOnUse"><stop
         offset="0.203742"
         stop-color="#644F76"
         stop-opacity="0.5"
         id="stop98-4" /><stop
         offset="0.519835"
         stop-color="#644F76"
         stop-opacity="0"
         id="stop99-9" /><stop
         offset="0.800665"
         stop-color="#644F76"
         id="stop100-2" /></linearGradient><linearGradient
       id="paint27_linear_18_14578"
       x1="18.0085"
       y1="13.6322"
       x2="20.8498"
       y2="15.718"
       gradientUnits="userSpaceOnUse"><stop
         stop-color="#3F3445"
         id="stop101-0" /><stop
         offset="1"
         stop-color="#5D5168"
         id="stop102" /></linearGradient><linearGradient
       id="paint28_linear_18_14578"
       x1="17.887"
       y1="20.6476"
       x2="19.9305"
       y2="20.0285"
       gradientUnits="userSpaceOnUse"><stop
         stop-color="#554C58"
         stop-opacity="0"
         id="stop103" /><stop
         offset="1"
         stop-color="#554C58"
         id="stop104" /></linearGradient></defs><g
     inkscape:label="Layer 1"
     inkscape:groupmode="layer"
     id="layer1"><rect
       style="fill:#bce7a9;fill-opacity:1;stroke-width:1.13877;stroke-linecap:round"
       id="rect1"
       width="564.8786"
       height="341.82281"
       x="-20.94054"
       y="-20.905596" /><g
       id="g31"
       transform="matrix(0.58043734,0,0,0.58043734,-58.884058,167.57635)"
       style="fill:#276130;fill-opacity:1"><g
         id="text1"
         style="font-size:10.5833px;font-family:'Source Code Pro';-inkscape-font-specification:'Source Code Pro';fill:#276130;fill-opacity:1;stroke-width:79.375"
         aria-label=" _______________________________________&#10;&lt; ever wonder, exactly, why we're here? &gt;&#10; ---------------------------------------&#10;        \   ^__^&#10;         \  (..)\_______&#10;            (__)\       )\/\&#10;                ||----w |&#10;                ||     ||&#10;"><path
           d="m 139.39901,109.82611 h 5.07999 v -0.75141 h -5.07999 z m 6.34999,0 h 5.07998 V 109.0747 H 145.749 Z m 6.34998,0 h 5.07999 v -0.75141 h -5.07999 z m 6.34998,0 h 5.07999 v -0.75141 h -5.07999 z m 6.34999,0 h 5.07998 v -0.75141 h -5.07998 z m 6.34998,0 h 5.07999 v -0.75141 h -5.07999 z m 6.34999,0 h 5.07998 v -0.75141 h -5.07998 z m 6.34998,0 h 5.07998 v -0.75141 h -5.07998 z m 6.34998,0 h 5.07999 v -0.75141 h -5.07999 z m 6.34999,0 h 5.07998 v -0.75141 h -5.07998 z m 6.34998,0 h 5.07999 v -0.75141 h -5.07999 z m 6.34999,0 h 5.07998 v -0.75141 h -5.07998 z m 6.34998,0 h 5.07998 v -0.75141 h -5.07998 z m 6.34998,0 h 5.07999 v -0.75141 h -5.07999 z m 6.34999,0 h 5.07998 v -0.75141 h -5.07998 z m 6.34998,0 h 5.07998 v -0.75141 h -5.07998 z m 6.34998,0 h 5.07999 v -0.75141 h -5.07999 z m 6.34999,0 h 5.07998 v -0.75141 h -5.07998 z m 6.34998,0 h 5.07998 v -0.75141 h -5.07998 z m 6.34998,0 h 5.07999 v -0.75141 h -5.07999 z m 6.34999,0 h 5.07998 v -0.75141 h -5.07998 z m 6.34999,0 h 5.07998 v -0.75141 h -5.07998 z m 6.34997,0 h 5.07999 v -0.75141 h -5.07999 z m 6.34999,0 h 5.07999 v -0.75141 h -5.07999 z m 6.34998,0 h 5.07998 v -0.75141 h -5.07998 z m 6.34999,0 h 5.07998 v -0.75141 h -5.07998 z m 6.34997,0 h 5.07999 v -0.75141 h -5.07999 z m 6.35,0 h 5.07998 v -0.75141 h -5.07998 z m 6.34997,0 h 5.07998 v -0.75141 h -5.07998 z m 6.34999,0 h 5.07999 v -0.75141 h -5.07999 z m 6.34998,0 h 5.07998 v -0.75141 h -5.07998 z m 6.34999,0 h 5.07998 v -0.75141 h -5.07998 z m 6.34999,0 h 5.07998 v -0.75141 h -5.07998 z m 6.34997,0 h 5.07999 v -0.75141 h -5.07999 z m 6.35,0 h 5.07998 v -0.75141 h -5.07998 z m 6.34997,0 h 5.07998 v -0.75141 h -5.07998 z m 6.34999,0 h 5.07999 v -0.75141 h -5.07999 z m 6.34998,0 h 5.07998 v -0.75141 h -5.07998 z m 6.34999,0 h 5.07998 v -0.75141 h -5.07998 z"
           id="path9"
           style="fill:#276130;fill-opacity:1" /><path
           d="m 137.6316,121.06558 v -0.83608 l -3.18557,-2.14841 v -0.0423 l 3.18557,-2.14841 v -0.83608 l -3.94757,2.67758 v 0.65616 z m 10.84789,-4.07457 c 0.87841,0 1.46049,0.51858 1.53458,1.57691 h -3.28083 c 0.15875,-1.016 0.89958,-1.57691 1.74625,-1.57691 z m 0.127,4.70957 c 0.8255,0 1.48166,-0.27517 1.98966,-0.61384 l -0.3175,-0.57149 c -0.46567,0.29633 -0.9525,0.48683 -1.56633,0.48683 -1.06891,0 -1.89441,-0.59267 -2.00024,-1.75683 h 4.0534 c 0.0212,-0.13758 0.0423,-0.32808 0.0423,-0.52916 0,-1.44992 -0.86783,-2.413 -2.34949,-2.413 -1.37583,0 -2.62466,1.016 -2.62466,2.68816 0,1.7145 1.22767,2.70933 2.77283,2.70933 z m 5.56682,-0.127 h 0.97366 l 2.12725,-5.14349 h -0.83609 l -1.18533,2.92099 c -0.21166,0.51859 -0.38099,1.02658 -0.56091,1.51342 h -0.0423 c -0.17992,-0.48684 -0.37042,-0.99483 -0.58208,-1.51342 l -1.18533,-2.92099 h -0.87842 z m 7.00615,-4.58257 c 0.87841,0 1.46049,0.51858 1.53457,1.57691 h -3.28082 c 0.15875,-1.016 0.89958,-1.57691 1.74625,-1.57691 z m 0.127,4.70957 c 0.82549,0 1.48166,-0.27517 1.98966,-0.61384 l -0.3175,-0.57149 c -0.46567,0.29633 -0.9525,0.48683 -1.56633,0.48683 -1.06891,0 -1.89441,-0.59267 -2.00025,-1.75683 h 4.05341 c 0.0212,-0.13758 0.0423,-0.32808 0.0423,-0.52916 0,-1.44992 -0.86783,-2.413 -2.34949,-2.413 -1.37583,0 -2.62466,1.016 -2.62466,2.68816 0,1.7145 1.22766,2.70933 2.77283,2.70933 z m 4.40265,-0.127 h 0.86783 v -3.01624 c 0.61383,-1.06892 1.34408,-1.47108 2.11666,-1.47108 0.40217,0 0.59267,0.0529 0.9525,0.17991 l 0.20108,-0.75141 c -0.3175,-0.15875 -0.635,-0.21167 -1.01599,-0.21167 -0.9525,0 -1.75683,0.51858 -2.29658,1.34408 h -0.0317 l -0.0741,-1.21708 h -0.71967 z m 12.3613,0 h 1.12183 l 0.5715,-2.45533 c 0.0847,-0.35983 0.16934,-0.86783 0.254,-1.52399 h 0.0423 c 0.0847,0.65616 0.16934,1.16416 0.254,1.52399 l 0.59267,2.45533 h 1.12183 l 1.10066,-5.14349 h -0.80433 l -0.61383,2.98449 c -0.0952,0.48684 -0.14817,0.93133 -0.23283,1.41817 h -0.0423 c -0.0635,-0.48684 -0.20108,-0.93133 -0.3175,-1.41817 l -0.61383,-2.66699 h -0.86783 l -0.635,2.66699 c -0.11641,0.47625 -0.23283,0.93133 -0.29633,1.41817 h -0.0423 c -0.0635,-0.48684 -0.13758,-0.93133 -0.23283,-1.41817 l -0.61383,-2.98449 h -0.86784 z m 8.31848,0.127 c 1.35466,0 2.53999,-0.98425 2.53999,-2.68816 0,-1.72508 -1.18533,-2.70933 -2.53999,-2.70933 -1.35466,0 -2.53999,0.98425 -2.53999,2.70933 0,1.70391 1.18533,2.68816 2.53999,2.68816 z m 0,-0.71967 c -0.98425,0 -1.64041,-0.79375 -1.64041,-1.96849 0,-1.18533 0.65616,-1.98966 1.64041,-1.98966 0.98425,0 1.64041,0.80433 1.64041,1.98966 0,1.17474 -0.65616,1.96849 -1.64041,1.96849 z m 4.15924,0.59267 h 0.86783 v -3.58774 c 0.60325,-0.62442 1.016,-0.93133 1.62983,-0.93133 0.84666,0 1.18533,0.46566 1.18533,1.43933 v 3.07974 h 0.86783 v -3.19616 c 0,-1.35466 -0.56091,-2.07433 -1.77799,-2.07433 -0.80433,0 -1.397,0.43392 -1.93675,1.00542 h -0.0423 l -0.0741,-0.87842 h -0.71967 z m 8.23381,0.127 c 0.635,0 1.24883,-0.37042 1.67216,-0.80433 h 0.0317 l 0.0741,0.67733 h 0.71966 v -7.53531 h -0.86783 v 1.97907 l 0.0423,0.9525 h -0.0318 c -0.44449,-0.42333 -0.92074,-0.66675 -1.53457,-0.66675 -1.21708,0 -2.33891,1.03717 -2.33891,2.70933 0,1.71449 0.88899,2.68816 2.23307,2.68816 z m 0.17992,-0.73025 c -0.9525,0 -1.51341,-0.74083 -1.51341,-1.9685 0,-1.17474 0.71966,-1.96849 1.60866,-1.96849 0.4445,0 0.889,0.16933 1.35466,0.60325 v 2.56116 c -0.45508,0.508 -0.94191,0.77258 -1.44991,0.77258 z m 6.66748,-3.97932 c 0.87842,0 1.4605,0.51858 1.53458,1.57691 h -3.28082 c 0.15875,-1.016 0.89958,-1.57691 1.74624,-1.57691 z m 0.127,4.70957 c 0.8255,0 1.48167,-0.27517 1.98966,-0.61384 l -0.31749,-0.57149 c -0.46567,0.29633 -0.9525,0.48683 -1.56633,0.48683 -1.06892,0 -1.89441,-0.59267 -2.00025,-1.75683 h 4.05341 c 0.0212,-0.13758 0.0423,-0.32808 0.0423,-0.52916 0,-1.44992 -0.86783,-2.413 -2.34949,-2.413 -1.37583,0 -2.62466,1.016 -2.62466,2.68816 0,1.7145 1.22766,2.70933 2.77282,2.70933 z m 4.40266,-0.127 h 0.86783 v -3.01624 c 0.61383,-1.06892 1.34408,-1.47108 2.11666,-1.47108 0.40217,0 0.59267,0.0529 0.9525,0.17991 l 0.20108,-0.75141 c -0.3175,-0.15875 -0.635,-0.21167 -1.016,-0.21167 -0.95249,0 -1.75682,0.51858 -2.29657,1.34408 h -0.0317 l -0.0741,-1.21708 h -0.7197 z m 7.13315,2.25424 c 1.16416,-0.43392 1.86266,-1.30175 1.86266,-2.53999 0,-0.8255 -0.32808,-1.35466 -0.9525,-1.35466 -0.45508,0 -0.84666,0.28574 -0.84666,0.80433 0,0.52916 0.37041,0.79374 0.82549,0.79374 0.0635,0 0.13759,0 0.20109,-0.0212 -0.0317,0.83608 -0.46567,1.37583 -1.3335,1.76741 z m 13.73713,-6.83681 c 0.87841,0 1.46049,0.51858 1.53458,1.57691 h -3.28083 c 0.15875,-1.016 0.89958,-1.57691 1.74625,-1.57691 z m 0.127,4.70957 c 0.82549,0 1.48166,-0.27517 1.98966,-0.61384 l -0.3175,-0.57149 c -0.46567,0.29633 -0.9525,0.48683 -1.56633,0.48683 -1.06891,0 -1.89441,-0.59267 -2.00024,-1.75683 h 4.0534 c 0.0212,-0.13758 0.0423,-0.32808 0.0423,-0.52916 0,-1.44992 -0.86783,-2.413 -2.34949,-2.413 -1.37583,0 -2.62466,1.016 -2.62466,2.68816 0,1.7145 1.22766,2.70933 2.77283,2.70933 z m 3.53482,-0.127 h 0.93133 l 0.84667,-1.18533 c 0.21166,-0.32809 0.42333,-0.62442 0.63499,-0.93133 h 0.0423 c 0.22225,0.29633 0.46566,0.63499 0.67733,0.93133 l 0.89958,1.18533 h 0.9525 l -1.9685,-2.59291 1.83091,-2.55058 h -0.92074 l -0.77258,1.11125 c -0.17992,0.28575 -0.39159,0.60325 -0.58209,0.889 h -0.0423 c -0.21167,-0.28575 -0.42333,-0.59267 -0.60325,-0.86783 l -0.81491,-1.13242 h -0.96308 l 1.80974,2.47649 z m 8.27615,0.127 c 0.73024,0 1.46049,-0.381 2.03199,-0.8255 h 0.0318 l 0.0741,0.6985 h 0.70908 v -3.15383 c 0,-1.28058 -0.67733,-2.11666 -2.08491,-2.11666 -0.89958,0 -1.76741,0.40217 -2.28599,0.74083 l 0.33867,0.59267 c 0.47624,-0.29633 1.13241,-0.61383 1.79916,-0.61383 0.99483,0 1.34408,0.59266 1.36524,1.29116 -2.65641,0.21167 -3.72532,0.77258 -3.72532,1.92616 0,0.92075 0.78317,1.4605 1.74625,1.4605 z m 0.23283,-0.6985 c -0.59267,0 -1.13241,-0.24342 -1.13241,-0.8255 0,-0.67733 0.67733,-1.11125 2.87865,-1.29116 v 1.35466 c -0.58208,0.48683 -1.16416,0.762 -1.74624,0.762 z m 7.17548,0.6985 c 0.762,0 1.47108,-0.29634 2.04258,-0.80433 l -0.39159,-0.56092 c -0.42333,0.35983 -0.95249,0.64558 -1.58749,0.64558 -1.18533,0 -1.97908,-0.79375 -1.97908,-1.96849 0,-1.18533 0.81492,-1.98966 2.00025,-1.98966 0.53974,0 0.98424,0.22225 1.40757,0.59266 l 0.43392,-0.56091 c -0.42333,-0.41275 -1.03716,-0.75142 -1.87324,-0.75142 -1.55575,0 -2.86808,0.98425 -2.86808,2.70933 0,1.70391 1.2065,2.68816 2.81516,2.68816 z m 6.85798,0 c 0.64558,0 1.143,-0.13759 1.60866,-0.30692 l -0.1905,-0.635 c -0.37041,0.13759 -0.75141,0.23283 -1.23824,0.23283 -0.99483,0 -1.30175,-0.48683 -1.30175,-1.40757 v -2.44475 h 2.52941 v -0.70908 h -2.52941 v -1.65099 h -0.71966 l -0.11642,1.65099 -1.48166,0.0529 v 0.65616 h 1.44991 v 2.43416 c 0,1.27 0.48683,2.12725 1.98966,2.12725 z m 6.48757,0 c 0.56091,0 0.89958,-0.10584 1.37583,-0.30692 l -0.22225,-0.64558 c -0.34925,0.15875 -0.66675,0.23283 -0.96308,0.23283 -0.61384,0 -1.016,-0.3175 -1.016,-1.06891 v -5.87373 h -2.69874 v 0.70908 h 1.83091 v 5.10115 c 0,1.21708 0.60325,1.85208 1.69333,1.85208 z m 3.42899,2.08491 c 1.16416,0 1.79916,-0.77258 2.18016,-1.78858 l 2.26483,-5.56682 h -0.8255 l -1.12183,2.84691 c -0.16933,0.46567 -0.37042,1.00541 -0.55033,1.49225 h -0.0423 c -0.21166,-0.49742 -0.43391,-1.03717 -0.63499,-1.49225 l -1.25942,-2.84691 h -0.87841 l 2.40241,5.15407 -0.15875,0.381 c -0.254,0.635 -0.68792,1.10066 -1.40758,1.10066 -0.15875,0 -0.32808,-0.0318 -0.46567,-0.0741 l -0.17991,0.68791 c 0.17991,0.0635 0.43391,0.10584 0.67733,0.10584 z m 7.2919,0.0423 c 1.16417,-0.43392 1.86266,-1.30175 1.86266,-2.53999 0,-0.8255 -0.32808,-1.35466 -0.95249,-1.35466 -0.45508,0 -0.84667,0.28574 -0.84667,0.80433 0,0.52916 0.37042,0.79374 0.8255,0.79374 0.0635,0 0.13758,0 0.20108,-0.0212 -0.0317,0.83608 -0.46566,1.37583 -1.33349,1.76741 z m 11.57814,-2.25424 h 1.12183 l 0.5715,-2.45533 c 0.0847,-0.35983 0.16933,-0.86783 0.254,-1.52399 h 0.0423 c 0.0847,0.65616 0.16933,1.16416 0.254,1.52399 l 0.59266,2.45533 h 1.12183 l 1.10067,-5.14349 h -0.80433 l -0.61383,2.98449 c -0.0953,0.48684 -0.14817,0.93133 -0.23284,1.41817 h -0.0423 c -0.0635,-0.48684 -0.20108,-0.93133 -0.3175,-1.41817 l -0.61383,-2.66699 h -0.86783 l -0.635,2.66699 c -0.11642,0.47625 -0.23283,0.93133 -0.29633,1.41817 h -0.0423 c -0.0635,-0.48684 -0.13759,-0.93133 -0.23284,-1.41817 l -0.61383,-2.98449 h -0.86783 z m 6.12773,0 h 0.86783 v -3.58774 c 0.60325,-0.62442 1.01599,-0.93133 1.62983,-0.93133 0.84666,0 1.18533,0.46566 1.18533,1.43933 v 3.07974 h 0.86783 v -3.19616 c 0,-1.35466 -0.56092,-2.07433 -1.778,-2.07433 -0.80433,0 -1.39699,0.43392 -1.92616,1.00542 h -0.0317 l 0.0529,-1.21708 v -2.05316 h -0.86783 z m 6.75215,2.21191 c 1.16417,0 1.79916,-0.77258 2.18016,-1.78858 l 2.26483,-5.56682 h -0.8255 l -1.12183,2.84691 c -0.16933,0.46567 -0.37041,1.00541 -0.55033,1.49225 h -0.0423 c -0.21167,-0.49742 -0.43392,-1.03717 -0.635,-1.49225 l -1.25941,-2.84691 h -0.87842 l 2.40241,5.15407 -0.15875,0.381 c -0.254,0.635 -0.68791,1.10066 -1.40758,1.10066 -0.15875,0 -0.32808,-0.0318 -0.46566,-0.0741 l -0.17992,0.68791 c 0.17992,0.0635 0.43392,0.10584 0.67733,0.10584 z m 12.52005,-2.21191 h 1.12183 l 0.5715,-2.45533 c 0.0847,-0.35983 0.16933,-0.86783 0.254,-1.52399 h 0.0423 c 0.0847,0.65616 0.16934,1.16416 0.254,1.52399 l 0.59267,2.45533 h 1.12183 l 1.10066,-5.14349 h -0.80433 l -0.61383,2.98449 c -0.0952,0.48684 -0.14817,0.93133 -0.23283,1.41817 h -0.0423 c -0.0635,-0.48684 -0.20108,-0.93133 -0.3175,-1.41817 l -0.61383,-2.66699 h -0.86783 l -0.635,2.66699 c -0.11641,0.47625 -0.23283,0.93133 -0.29633,1.41817 h -0.0423 c -0.0635,-0.48684 -0.13758,-0.93133 -0.23283,-1.41817 l -0.61384,-2.98449 h -0.86783 z m 8.50897,-4.58257 c 0.87842,0 1.4605,0.51858 1.53458,1.57691 h -3.28082 c 0.15875,-1.016 0.89958,-1.57691 1.74624,-1.57691 z m 0.127,4.70957 c 0.8255,0 1.48166,-0.27517 1.98966,-0.61384 l -0.3175,-0.57149 c -0.46566,0.29633 -0.95249,0.48683 -1.56633,0.48683 -1.06891,0 -1.89441,-0.59267 -2.00024,-1.75683 h 4.0534 c 0.0212,-0.13758 0.0423,-0.32808 0.0423,-0.52916 0,-1.44992 -0.86783,-2.413 -2.34949,-2.413 -1.37583,0 -2.62466,1.016 -2.62466,2.68816 0,1.7145 1.22766,2.70933 2.77282,2.70933 z m 5.73616,-3.85233 h 0.59267 l 0.26458,-2.38124 0.0212,-1.16416 h -1.16417 l 0.0212,1.16416 z m 5.01648,3.72533 h 0.86783 v -3.01624 c 0.61383,-1.06892 1.34408,-1.47108 2.11666,-1.47108 0.40217,0 0.59267,0.0529 0.9525,0.17991 l 0.20108,-0.75141 c -0.3175,-0.15875 -0.635,-0.21167 -1.016,-0.21167 -0.95249,0 -1.75682,0.51858 -2.29657,1.34408 h -0.0317 l -0.0741,-1.21708 h -0.71967 z m 8.17032,-4.58257 c 0.87841,0 1.46049,0.51858 1.53458,1.57691 h -3.28083 c 0.15875,-1.016 0.89959,-1.57691 1.74625,-1.57691 z m 0.127,4.70957 c 0.8255,0 1.48166,-0.27517 1.98966,-0.61384 l -0.3175,-0.57149 c -0.46566,0.29633 -0.9525,0.48683 -1.56633,0.48683 -1.06891,0 -1.89441,-0.59267 -2.00024,-1.75683 h 4.0534 c 0.0212,-0.13758 0.0423,-0.32808 0.0423,-0.52916 0,-1.44992 -0.86784,-2.413 -2.3495,-2.413 -1.37583,0 -2.62466,1.016 -2.62466,2.68816 0,1.7145 1.22767,2.70933 2.77283,2.70933 z m 10.19172,-0.127 h 0.86783 v -3.58774 c 0.60325,-0.62442 1.016,-0.93133 1.62983,-0.93133 0.84667,0 1.18533,0.46566 1.18533,1.43933 v 3.07974 h 0.86783 v -3.19616 c 0,-1.35466 -0.56091,-2.07433 -1.77799,-2.07433 -0.80433,0 -1.397,0.43392 -1.92616,1.00542 h -0.0317 l 0.0529,-1.21708 v -2.05316 h -0.86783 z m 8.73124,-4.58257 c 0.87841,0 1.46049,0.51858 1.53458,1.57691 h -3.28083 c 0.15875,-1.016 0.89958,-1.57691 1.74625,-1.57691 z m 0.127,4.70957 c 0.82549,0 1.48166,-0.27517 1.98966,-0.61384 l -0.3175,-0.57149 c -0.46567,0.29633 -0.9525,0.48683 -1.56633,0.48683 -1.06891,0 -1.89441,-0.59267 -2.00024,-1.75683 h 4.0534 c 0.0212,-0.13758 0.0423,-0.32808 0.0423,-0.52916 0,-1.44992 -0.86783,-2.413 -2.34949,-2.413 -1.37583,0 -2.62466,1.016 -2.62466,2.68816 0,1.7145 1.22766,2.70933 2.77283,2.70933 z m 4.40264,-0.127 h 0.86784 v -3.01624 c 0.61383,-1.06892 1.34407,-1.47108 2.11666,-1.47108 0.40216,0 0.59266,0.0529 0.95249,0.17991 l 0.20108,-0.75141 c -0.31749,-0.15875 -0.63499,-0.21167 -1.01599,-0.21167 -0.9525,0 -1.75683,0.51858 -2.29658,1.34408 h -0.0317 l -0.0741,-1.21708 h -0.71967 z m 8.17032,-4.58257 c 0.87842,0 1.4605,0.51858 1.53458,1.57691 h -3.28082 c 0.15875,-1.016 0.89958,-1.57691 1.74624,-1.57691 z m 0.127,4.70957 c 0.8255,0 1.48166,-0.27517 1.98966,-0.61384 l -0.3175,-0.57149 c -0.46566,0.29633 -0.95249,0.48683 -1.56632,0.48683 -1.06892,0 -1.89441,-0.59267 -2.00025,-1.75683 h 4.05341 c 0.0212,-0.13758 0.0423,-0.32808 0.0423,-0.52916 0,-1.44992 -0.86783,-2.413 -2.34949,-2.413 -1.37583,0 -2.62466,1.016 -2.62466,2.68816 0,1.7145 1.22766,2.70933 2.77282,2.70933 z m 5.41865,-2.58233 h 0.77258 c -0.1905,-1.37583 1.73566,-1.67216 1.73566,-3.11149 0,-1.00541 -0.79375,-1.65099 -1.96849,-1.65099 -0.81492,0 -1.47108,0.35983 -1.94733,0.85724 l 0.51858,0.47625 c 0.381,-0.381 0.83608,-0.61383 1.37583,-0.61383 0.77258,0 1.16416,0.4445 1.16416,1.02658 0,1.0795 -1.90499,1.50283 -1.65099,3.01624 z m 0.46566,2.58233 c 0.42334,0 0.77258,-0.3175 0.77258,-0.8255 0,-0.49742 -0.34924,-0.80433 -0.77258,-0.80433 -0.42333,0 -0.77258,0.30691 -0.77258,0.80433 0,0.508 0.34925,0.8255 0.77258,0.8255 z m 10.80556,-0.635 3.94757,-2.67758 v -0.65616 l -3.94757,-2.67758 v 0.83608 l 3.18557,2.14841 v 0.0423 l -3.18557,2.14841 z"
           id="path10"
           style="fill:#276130;fill-opacity:1" /><path
           d="m 139.6636,131.63829 h 4.55081 v -0.65616 h -4.55081 z m 6.34998,0 h 4.55082 v -0.65616 h -4.55082 z m 6.34998,0 h 4.55082 v -0.65616 h -4.55082 z m 6.34999,0 h 4.55082 v -0.65616 h -4.55082 z m 6.34998,0 h 4.55082 v -0.65616 h -4.55082 z m 6.34999,0 h 4.55081 v -0.65616 h -4.55081 z m 6.34998,0 h 4.55082 v -0.65616 h -4.55082 z m 6.34998,0 h 4.55082 v -0.65616 h -4.55082 z m 6.34999,0 h 4.55081 v -0.65616 h -4.55081 z m 6.34998,0 h 4.55082 v -0.65616 h -4.55082 z m 6.34999,0 h 4.55081 v -0.65616 h -4.55081 z m 6.34998,0 h 4.55082 v -0.65616 h -4.55082 z m 6.34998,0 h 4.55082 v -0.65616 h -4.55082 z m 6.34999,0 h 4.55081 v -0.65616 h -4.55081 z m 6.34998,0 h 4.55082 v -0.65616 h -4.55082 z m 6.34998,0 h 4.55082 v -0.65616 h -4.55082 z m 6.34998,0 h 4.55082 v -0.65616 h -4.55082 z m 6.34999,0 h 4.55082 v -0.65616 h -4.55082 z m 6.34998,0 h 4.55082 v -0.65616 h -4.55082 z m 6.34998,0 h 4.55082 v -0.65616 h -4.55082 z m 6.34999,0 h 4.55082 v -0.65616 h -4.55082 z m 6.34999,0 h 4.55082 v -0.65616 h -4.55082 z m 6.34997,0 h 4.55082 v -0.65616 h -4.55082 z m 6.34999,0 h 4.55082 v -0.65616 h -4.55082 z m 6.34998,0 h 4.55082 v -0.65616 h -4.55082 z m 6.34999,0 h 4.55082 v -0.65616 h -4.55082 z m 6.34998,0 h 4.55082 v -0.65616 h -4.55082 z m 6.34999,0 h 4.55082 v -0.65616 h -4.55082 z m 6.34997,0 h 4.55082 v -0.65616 h -4.55082 z m 6.34999,0 h 4.55082 v -0.65616 h -4.55082 z m 6.34998,0 h 4.55082 v -0.65616 h -4.55082 z m 6.34999,0 h 4.55082 v -0.65616 h -4.55082 z m 6.34999,0 h 4.55082 v -0.65616 h -4.55082 z m 6.34998,0 h 4.55082 v -0.65616 h -4.55082 z m 6.34999,0 h 4.55082 v -0.65616 h -4.55082 z m 6.34997,0 h 4.55082 v -0.65616 h -4.55082 z m 6.34999,0 h 4.55082 v -0.65616 h -4.55082 z m 6.34998,0 h 4.55082 v -0.65616 h -4.55082 z m 6.34999,0 h 4.55082 v -0.65616 h -4.55082 z"
           id="path11"
           style="fill:#276130;fill-opacity:1" /><path
           d="m 291.72522,149.72515 h -0.78316 l 3.47132,-9.20747 h 0.78316 z m -22.05561,-4.69898 h -0.762 l -0.6985,-1.86266 -0.51858,-1.40758 h -0.0423 l -0.51859,1.40758 -0.69849,1.86266 h -0.762 l 1.61924,-4.08516 h 0.762 z m -5.81024,4.48732 h -5.07998 v -0.75142 h 5.07998 z m -6.34998,0 h -5.07999 v -0.75142 h 5.07999 z m -6.88973,-4.48732 h -0.762 l -0.6985,-1.86266 -0.51858,-1.40758 h -0.0423 l -0.51859,1.40758 -0.69849,1.86266 h -0.762 l 1.61924,-4.08516 h 0.762 z"
           id="path12"
           style="fill:#276130;fill-opacity:1" /><path
           d="m 285.37524,162.95428 h -0.78317 l 3.47132,-9.20747 h 0.78317 z m -19.11346,0.16933 -0.47625,-0.4445 c 1.41817,-1.19591 2.07433,-2.58232 2.07433,-4.36032 0,-1.77799 -0.65616,-3.1644 -2.07433,-4.36032 l 0.47625,-0.4445 c 1.47108,1.143 2.38125,2.76225 2.38125,4.80482 0,2.04258 -0.91017,3.66182 -2.38125,4.80482 z m -4.9424,-1.73566 c -0.47625,0 -0.85725,-0.35983 -0.85725,-0.889 0,-0.53975 0.381,-0.89958 0.85725,-0.89958 0.47625,0 0.85725,0.35983 0.85725,0.89958 0,0.52917 -0.381,0.889 -0.85725,0.889 z m -6.34998,0 c -0.47625,0 -0.85725,-0.35983 -0.85725,-0.889 0,-0.53975 0.381,-0.89958 0.85725,-0.89958 0.47624,0 0.85724,0.35983 0.85724,0.89958 0,0.52917 -0.381,0.889 -0.85724,0.889 z m -4.94241,1.73566 c -1.47108,-1.143 -2.38124,-2.76224 -2.38124,-4.80482 0,-2.04257 0.91016,-3.66182 2.38124,-4.80482 l 0.47625,0.4445 c -1.41816,1.19592 -2.07433,2.58233 -2.07433,4.36032 0,1.778 0.65617,3.16441 2.07433,4.36032 z m -9.10164,-0.16933 h -0.78316 l 3.47132,-9.20747 h 0.78316 z m -2.46591,-0.21167 h -5.07999 v -0.75141 h 5.07999 z m -6.34999,0 h -5.07998 v -0.75141 h 5.07998 z m -6.34998,0 h -5.07998 v -0.75141 h 5.07998 z m -6.34998,0 h -5.07999 v -0.75141 h 5.07999 z m -6.34999,0 h -5.07998 v -0.75141 h 5.07998 z m -6.34999,0 h -5.07998 v -0.75141 h 5.07998 z m -6.34997,0 h -5.07999 v -0.75141 h 5.07999 z"
           id="path13"
           style="fill:#276130;fill-opacity:1" /><path
           d="m 266.26178,176.35274 -0.47625,-0.4445 c 1.41817,-1.19592 2.07433,-2.58233 2.07433,-4.36032 0,-1.778 -0.65616,-3.16441 -2.07433,-4.36032 l 0.47625,-0.4445 c 1.47108,1.143 2.38125,2.76224 2.38125,4.80482 0,2.04257 -0.91017,3.66182 -2.38125,4.80482 z m -2.40241,-0.381 h -5.07998 v -0.75142 h 5.07998 z m -6.34998,0 h -5.07999 v -0.75142 h 5.07999 z m -7.4824,0.381 c -1.47108,-1.143 -2.38124,-2.76225 -2.38124,-4.80482 0,-2.04258 0.91016,-3.66182 2.38124,-4.80482 l 0.47625,0.4445 c -1.41816,1.19591 -2.07433,2.58232 -2.07433,4.36032 0,1.77799 0.65617,3.1644 2.07433,4.36032 z m -9.10164,-0.16934 h -0.78316 l 3.47132,-9.20747 h 0.78316 z m -48.04822,0.16934 c -1.47107,-1.143 -2.38124,-2.76225 -2.38124,-4.80482 0,-2.04258 0.91017,-3.66182 2.38124,-4.80482 l 0.47625,0.4445 c -1.41816,1.19591 -2.07432,2.58232 -2.07432,4.36032 0,1.77799 0.65616,3.1644 2.07432,4.36032 z m -9.10163,-0.16934 h -0.78316 l 3.47132,-9.20747 h 0.78316 z m -2.87867,0 h -0.78316 l -3.47132,-9.20747 h 0.78316 z m -9.8213,0 h -0.78316 l 3.47132,-9.20747 h 0.78317 z"
           id="path14"
           style="fill:#276130;fill-opacity:1" /><path
           d="m 242.66101,190.36502 h -0.78316 v -10.5833 h 0.78316 z m -6.34998,0 h -0.78317 v -10.5833 h 0.78317 z m -4.46616,-5.81023 h -4.55082 v -0.65616 h 4.55082 z m -6.34998,0 h -4.55082 v -0.65616 h 4.55082 z m -6.34998,0 h -4.55082 v -0.65616 h 4.55082 z m -6.34999,0 h -4.55082 v -0.65616 h 4.55082 z m -6.6569,3.16441 h -1.12183 l -0.5715,-2.45533 c -0.0847,-0.35983 -0.16933,-0.86783 -0.254,-1.52399 h -0.0423 c -0.0847,0.65616 -0.16934,1.16416 -0.254,1.52399 l -0.59267,2.45533 h -1.12183 l -1.10066,-5.14348 h 0.80433 l 0.61383,2.98449 c 0.0952,0.48683 0.14817,0.93133 0.23283,1.41816 h 0.0423 c 0.0635,-0.48683 0.20108,-0.93133 0.3175,-1.41816 l 0.61383,-2.667 h 0.86783 l 0.635,2.667 c 0.11641,0.47624 0.23283,0.93133 0.29633,1.41816 h 0.0423 c 0.0635,-0.48683 0.13758,-0.93133 0.23283,-1.41816 l 0.61384,-2.98449 h 0.86783 z m -14.27688,2.64582 h -0.78317 v -10.5833 h 0.78317 z"
           id="path15"
           style="fill:#276130;fill-opacity:1" /><path
           d="m 242.66101,203.59415 h -0.78316 v -10.5833 h 0.78316 z m -6.34998,0 h -0.78317 v -10.5833 h 0.78317 z m -38.0999,0 h -0.78317 v -10.5833 h 0.78317 z m -6.34999,0 h -0.78317 v -10.5833 h 0.78317 z"
           id="path16"
           style="fill:#276130;fill-opacity:1" /></g><g
         id="text16"
         style="font-size:10.5833px;font-family:'Source Code Pro';-inkscape-font-specification:'Source Code Pro';fill:#276130;fill-opacity:1;stroke-width:79.375"
         aria-label=" _________________________&#10;&lt; we're cows. ASCII cows. &gt;&#10; -------------------------&#10;        \   ^__^&#10;         \  (--)\_______&#10;            (__)\       )\/\&#10;                ||----w |&#10;                ||     ||&#10;"
         transform="translate(104.72288,-306.49539)"><path
           d="m 304.56613,416.32151 h 5.07998 v -0.75142 h -5.07998 z m 6.34998,0 h 5.07999 v -0.75142 h -5.07999 z m 6.34999,0 h 5.07998 v -0.75142 h -5.07998 z m 6.34998,0 h 5.07998 v -0.75142 h -5.07998 z m 6.34998,0 h 5.07999 v -0.75142 h -5.07999 z m 6.34999,0 h 5.07998 v -0.75142 h -5.07998 z m 6.34998,0 h 5.07998 v -0.75142 h -5.07998 z m 6.34998,0 h 5.07999 v -0.75142 h -5.07999 z m 6.34999,0 h 5.07998 v -0.75142 H 355.366 Z m 6.34998,0 h 5.07998 v -0.75142 h -5.07998 z m 6.34999,0 h 5.07998 v -0.75142 h -5.07998 z m 6.34998,0 h 5.07998 v -0.75142 h -5.07998 z m 6.34998,0 h 5.07999 v -0.75142 h -5.07999 z m 6.34999,0 h 5.07998 v -0.75142 h -5.07998 z m 6.34998,0 h 5.07998 v -0.75142 h -5.07998 z m 6.34998,0 h 5.07999 v -0.75142 h -5.07999 z m 6.34999,0 h 5.07998 v -0.75142 h -5.07998 z m 6.34998,0 h 5.07998 v -0.75142 h -5.07998 z m 6.34998,0 h 5.07999 v -0.75142 h -5.07999 z m 6.34999,0 h 5.07998 v -0.75142 h -5.07998 z m 6.34998,0 h 5.07998 v -0.75142 h -5.07998 z m 6.34999,0 h 5.07998 v -0.75142 h -5.07998 z m 6.34998,0 h 5.07998 v -0.75142 h -5.07998 z m 6.34999,0 h 5.07998 v -0.75142 h -5.07998 z m 6.34997,0 h 5.07999 v -0.75142 h -5.07999 z"
           id="path24"
           style="fill:#276130;fill-opacity:1" /><path
           d="m 302.79871,427.56097 v -0.83608 l -3.18557,-2.14841 v -0.0423 l 3.18557,-2.14841 v -0.83608 l -3.94757,2.67757 v 0.65617 z m 8.6889,0.508 h 1.12183 l 0.5715,-2.45533 c 0.0847,-0.35983 0.16933,-0.86783 0.254,-1.52399 h 0.0423 c 0.0847,0.65616 0.16933,1.16416 0.254,1.52399 l 0.59266,2.45533 h 1.12183 l 1.10067,-5.14349 h -0.80433 l -0.61384,2.9845 c -0.0952,0.48683 -0.14816,0.93133 -0.23283,1.41816 h -0.0423 c -0.0635,-0.48683 -0.20108,-0.93133 -0.3175,-1.41816 l -0.61383,-2.667 h -0.86783 l -0.635,2.667 c -0.11642,0.47624 -0.23283,0.93133 -0.29633,1.41816 h -0.0423 c -0.0635,-0.48683 -0.13758,-0.93133 -0.23283,-1.41816 l -0.61383,-2.9845 h -0.86783 z m 8.50898,-4.58257 c 0.87841,0 1.46049,0.51858 1.53458,1.57691 h -3.28083 c 0.15875,-1.016 0.89958,-1.57691 1.74625,-1.57691 z m 0.127,4.70957 c 0.82549,0 1.48166,-0.27517 1.98966,-0.61383 l -0.3175,-0.5715 c -0.46567,0.29633 -0.9525,0.48683 -1.56633,0.48683 -1.06891,0 -1.89441,-0.59266 -2.00024,-1.75683 h 4.0534 c 0.0212,-0.13758 0.0423,-0.32808 0.0423,-0.52916 0,-1.44991 -0.86783,-2.41299 -2.34949,-2.41299 -1.37583,0 -2.62466,1.01599 -2.62466,2.68815 0,1.7145 1.22766,2.70933 2.77283,2.70933 z m 5.73615,-3.85232 h 0.59266 l 0.26459,-2.38125 0.0212,-1.16416 h -1.16416 l 0.0212,1.16416 z m 5.01649,3.72532 h 0.86783 v -3.01624 c 0.61383,-1.06892 1.34408,-1.47108 2.11666,-1.47108 0.40216,0 0.59266,0.0529 0.95249,0.17992 l 0.20109,-0.75142 c -0.3175,-0.15875 -0.635,-0.21166 -1.016,-0.21166 -0.9525,0 -1.75683,0.51858 -2.29658,1.34407 h -0.0318 l -0.0741,-1.21708 h -0.71966 z m 8.17031,-4.58257 c 0.87841,0 1.46049,0.51858 1.53458,1.57691 h -3.28083 c 0.15875,-1.016 0.89958,-1.57691 1.74625,-1.57691 z m 0.127,4.70957 c 0.8255,0 1.48166,-0.27517 1.98966,-0.61383 l -0.3175,-0.5715 c -0.46567,0.29633 -0.9525,0.48683 -1.56633,0.48683 -1.06891,0 -1.89441,-0.59266 -2.00024,-1.75683 h 4.0534 c 0.0212,-0.13758 0.0423,-0.32808 0.0423,-0.52916 0,-1.44991 -0.86783,-2.41299 -2.34949,-2.41299 -1.37583,0 -2.62466,1.01599 -2.62466,2.68815 0,1.7145 1.22767,2.70933 2.77283,2.70933 z m 12.8693,0 c 0.762,0 1.47108,-0.29633 2.04257,-0.80433 l -0.39158,-0.56092 c -0.42333,0.35983 -0.95249,0.64558 -1.58749,0.64558 -1.18533,0 -1.97908,-0.79374 -1.97908,-1.96849 0,-1.18533 0.81491,-1.98966 2.00024,-1.98966 0.53975,0 0.98425,0.22225 1.40758,0.59266 l 0.43392,-0.56091 c -0.42333,-0.41275 -1.03717,-0.75141 -1.87325,-0.75141 -1.55574,0 -2.86807,0.98424 -2.86807,2.70932 0,1.70391 1.2065,2.68816 2.81516,2.68816 z m 5.86315,0 c 1.35466,0 2.53999,-0.98425 2.53999,-2.68816 0,-1.72508 -1.18533,-2.70932 -2.53999,-2.70932 -1.35466,0 -2.53999,0.98424 -2.53999,2.70932 0,1.70391 1.18533,2.68816 2.53999,2.68816 z m 0,-0.71967 c -0.98425,0 -1.64041,-0.79374 -1.64041,-1.96849 0,-1.18533 0.65616,-1.98966 1.64041,-1.98966 0.98425,0 1.64041,0.80433 1.64041,1.98966 0,1.17475 -0.65616,1.96849 -1.64041,1.96849 z m 4.38149,0.59267 h 1.12183 l 0.5715,-2.45533 c 0.0847,-0.35983 0.16933,-0.86783 0.254,-1.52399 h 0.0423 c 0.0847,0.65616 0.16933,1.16416 0.254,1.52399 l 0.59266,2.45533 h 1.12183 l 1.10067,-5.14349 h -0.80434 l -0.61383,2.9845 c -0.0953,0.48683 -0.14816,0.93133 -0.23283,1.41816 h -0.0423 c -0.0635,-0.48683 -0.20109,-0.93133 -0.3175,-1.41816 l -0.61383,-2.667 h -0.86783 l -0.635,2.667 c -0.11642,0.47624 -0.23283,0.93133 -0.29633,1.41816 h -0.0423 c -0.0635,-0.48683 -0.13758,-0.93133 -0.23283,-1.41816 l -0.61383,-2.9845 h -0.86783 z m 8.42431,0.127 c 1.47108,0 2.28599,-0.6985 2.28599,-1.53458 0,-0.78316 -0.41274,-1.21708 -2.12724,-1.5875 -1.04775,-0.22224 -1.49224,-0.41274 -1.49224,-0.85724 0,-0.39158 0.30691,-0.74083 1.18533,-0.74083 0.65616,0 1.24883,0.21166 1.72507,0.53974 l 0.42334,-0.56091 c -0.508,-0.34925 -1.29117,-0.65616 -2.07433,-0.65616 -1.40758,0 -2.13783,0.63499 -2.13783,1.46049 0,0.77258 0.67733,1.22766 2.01083,1.50283 1.39699,0.28575 1.60866,0.56091 1.60866,0.9525 0,0.43391 -0.43391,0.80433 -1.30174,0.80433 -0.9525,0 -1.64042,-0.27517 -2.23308,-0.6985 l -0.40217,0.5715 c 0.62442,0.43391 1.524,0.80433 2.52941,0.80433 z m 6.24415,0 c 0.47625,0 0.85725,-0.35983 0.85725,-0.889 0,-0.53975 -0.381,-0.89958 -0.85725,-0.89958 -0.47625,0 -0.85724,0.35983 -0.85724,0.89958 0,0.52917 0.38099,0.889 0.85724,0.889 z m 11.9803,-4.01107 c 0.24342,-0.77258 0.46567,-1.53458 0.68792,-2.33891 h 0.0423 c 0.21167,0.80433 0.4445,1.56633 0.68792,2.33891 l 0.32808,1.05833 h -2.07433 z m -2.11666,3.88407 h 0.89958 l 0.66675,-2.11666 h 2.51883 l 0.65616,2.11666 h 0.93133 l -2.33891,-6.94265 h -0.99483 z m 9.23923,0.127 c 1.52399,0 2.45532,-0.87842 2.45532,-1.97908 0,-1.02658 -0.67733,-1.50283 -1.53457,-1.85208 l -0.97367,-0.42333 c -0.59266,-0.24341 -1.23824,-0.48683 -1.23824,-1.15358 0,-0.62441 0.53974,-1.01599 1.34407,-1.01599 0.71967,0 1.24883,0.25399 1.70392,0.65616 l 0.46566,-0.5715 c -0.508,-0.508 -1.26999,-0.85725 -2.13783,-0.85725 -1.32291,0 -2.2754,0.78317 -2.2754,1.8415 0,1.016 0.80433,1.51341 1.50282,1.78858 l 0.99483,0.43391 c 0.70909,0.30692 1.24883,0.51858 1.24883,1.25941 0,0.64559 -0.56091,1.10067 -1.51341,1.10067 -0.79375,0 -1.51341,-0.34925 -2.03199,-0.86783 l -0.52917,0.61383 c 0.62442,0.62441 1.50283,1.02658 2.51883,1.02658 z m 6.83681,0 c 0.92075,0 1.59808,-0.37042 2.14841,-1.00542 l -0.49741,-0.53974 c -0.4445,0.49741 -0.93133,0.77258 -1.56633,0.77258 -1.3335,0 -2.20133,-1.10067 -2.20133,-2.84691 0,-1.72508 0.86783,-2.80457 2.20133,-2.80457 0.58208,0 1.03716,0.25399 1.397,0.63499 l 0.49741,-0.56091 c -0.40216,-0.4445 -1.06891,-0.84667 -1.89441,-0.84667 -1.80974,0 -3.11149,1.36525 -3.11149,3.59833 0,2.26482 1.31233,3.59832 3.02682,3.59832 z m 3.64066,-0.127 h 4.33915 v -0.75142 h -1.72507 v -5.4504 h 1.72507 v -0.74083 h -4.33915 v 0.74083 h 1.72508 v 5.4504 h -1.72508 z m 6.34999,0 h 4.33915 v -0.75142 h -1.72508 v -5.4504 h 1.72508 v -0.74083 h -4.33915 v 0.74083 h 1.72507 v 5.4504 h -1.72507 z m 15.35637,0.127 c 0.762,0 1.47108,-0.29633 2.04258,-0.80433 l -0.39159,-0.56092 c -0.42333,0.35983 -0.95249,0.64558 -1.58749,0.64558 -1.18533,0 -1.97908,-0.79374 -1.97908,-1.96849 0,-1.18533 0.81492,-1.98966 2.00025,-1.98966 0.53974,0 0.98424,0.22225 1.40758,0.59266 l 0.43391,-0.56091 c -0.42333,-0.41275 -1.03716,-0.75141 -1.87324,-0.75141 -1.55575,0 -2.86808,0.98424 -2.86808,2.70932 0,1.70391 1.2065,2.68816 2.81516,2.68816 z m 5.86315,0 c 1.35466,0 2.53999,-0.98425 2.53999,-2.68816 0,-1.72508 -1.18533,-2.70932 -2.53999,-2.70932 -1.35466,0 -2.53999,0.98424 -2.53999,2.70932 0,1.70391 1.18533,2.68816 2.53999,2.68816 z m 0,-0.71967 c -0.98425,0 -1.64041,-0.79374 -1.64041,-1.96849 0,-1.18533 0.65616,-1.98966 1.64041,-1.98966 0.98425,0 1.64041,0.80433 1.64041,1.98966 0,1.17475 -0.65616,1.96849 -1.64041,1.96849 z m 4.3815,0.59267 h 1.12183 l 0.5715,-2.45533 c 0.0847,-0.35983 0.16933,-0.86783 0.254,-1.52399 h 0.0423 c 0.0847,0.65616 0.16933,1.16416 0.254,1.52399 l 0.59266,2.45533 h 1.12183 l 1.10067,-5.14349 h -0.80434 l -0.61383,2.9845 c -0.0953,0.48683 -0.14816,0.93133 -0.23283,1.41816 h -0.0423 c -0.0635,-0.48683 -0.20109,-0.93133 -0.3175,-1.41816 l -0.61383,-2.667 h -0.86783 l -0.635,2.667 c -0.11642,0.47624 -0.23283,0.93133 -0.29633,1.41816 h -0.0423 c -0.0635,-0.48683 -0.13758,-0.93133 -0.23283,-1.41816 l -0.61383,-2.9845 h -0.86783 z m 8.4243,0.127 c 1.47108,0 2.28599,-0.6985 2.28599,-1.53458 0,-0.78316 -0.41275,-1.21708 -2.12724,-1.5875 -1.04775,-0.22224 -1.49225,-0.41274 -1.49225,-0.85724 0,-0.39158 0.30692,-0.74083 1.18533,-0.74083 0.65617,0 1.24883,0.21166 1.72508,0.53974 l 0.42333,-0.56091 c -0.50799,-0.34925 -1.29116,-0.65616 -2.07432,-0.65616 -1.40758,0 -2.13783,0.63499 -2.13783,1.46049 0,0.77258 0.67733,1.22766 2.01083,1.50283 1.39699,0.28575 1.60866,0.56091 1.60866,0.9525 0,0.43391 -0.43392,0.80433 -1.30175,0.80433 -0.95249,0 -1.64041,-0.27517 -2.23307,-0.6985 l -0.40217,0.5715 c 0.62442,0.43391 1.524,0.80433 2.52941,0.80433 z m 6.24416,0 c 0.47625,0 0.85725,-0.35983 0.85725,-0.889 0,-0.53975 -0.381,-0.89958 -0.85725,-0.89958 -0.47625,0 -0.85725,0.35983 -0.85725,0.89958 0,0.52917 0.381,0.889 0.85725,0.889 z m 10.65739,-0.635 3.94757,-2.67757 v -0.65617 l -3.94757,-2.67757 v 0.83608 l 3.18557,2.14841 v 0.0423 l -3.18557,2.14841 z"
           id="path25"
           style="fill:#276130;fill-opacity:1" /><path
           d="m 304.83071,438.13369 h 4.55082 v -0.65617 h -4.55082 z m 6.34998,0 h 4.55082 v -0.65617 h -4.55082 z m 6.34999,0 h 4.55082 v -0.65617 h -4.55082 z m 6.34998,0 h 4.55082 v -0.65617 h -4.55082 z m 6.34998,0 h 4.55082 v -0.65617 h -4.55082 z m 6.34999,0 h 4.55082 v -0.65617 h -4.55082 z m 6.34998,0 h 4.55082 v -0.65617 h -4.55082 z m 6.34999,0 h 4.55082 v -0.65617 h -4.55082 z m 6.34998,0 h 4.55082 v -0.65617 h -4.55082 z m 6.34998,0 h 4.55082 v -0.65617 h -4.55082 z m 6.34999,0 h 4.55082 v -0.65617 h -4.55082 z m 6.34998,0 h 4.55082 v -0.65617 h -4.55082 z m 6.34999,0 h 4.55081 v -0.65617 h -4.55081 z m 6.34998,0 h 4.55082 v -0.65617 h -4.55082 z m 6.34998,0 h 4.55082 v -0.65617 h -4.55082 z m 6.34999,0 h 4.55081 v -0.65617 h -4.55081 z m 6.34998,0 h 4.55082 v -0.65617 h -4.55082 z m 6.34998,0 h 4.55082 v -0.65617 h -4.55082 z m 6.34999,0 h 4.55081 v -0.65617 h -4.55081 z m 6.34998,0 h 4.55082 v -0.65617 h -4.55082 z m 6.34998,0 h 4.55082 v -0.65617 h -4.55082 z m 6.34999,0 h 4.55082 v -0.65617 h -4.55082 z m 6.34998,0 h 4.55082 v -0.65617 h -4.55082 z m 6.34999,0 h 4.55082 v -0.65617 h -4.55082 z m 6.34997,0 h 4.55082 v -0.65617 h -4.55082 z"
           id="path26"
           style="fill:#276130;fill-opacity:1" /><path
           d="m 334.24171,456.22055 h 0.78317 l -3.47132,-9.20748 h -0.78317 z m 22.05562,-4.69899 h 0.762 l 0.69849,-1.86266 0.51859,-1.40758 h 0.0423 l 0.51858,1.40758 0.6985,1.86266 h 0.762 l -1.61925,-4.08515 h -0.762 z m 5.81023,4.48732 h 5.07999 v -0.75141 h -5.07999 z m 6.34999,0 h 5.07998 v -0.75141 h -5.07998 z m 6.88973,-4.48732 h 0.762 l 0.69849,-1.86266 0.51859,-1.40758 h 0.0423 l 0.51858,1.40758 0.6985,1.86266 h 0.762 l -1.61925,-4.08515 h -0.762 z"
           id="path27"
           style="fill:#276130;fill-opacity:1" /><path
           d="m 340.5917,469.44967 h 0.78316 l -3.47132,-9.20747 h -0.78316 z m 19.11345,0.16933 0.47625,-0.4445 c -1.41816,-1.19591 -2.07433,-2.58232 -2.07433,-4.36032 0,-1.77799 0.65617,-3.1644 2.07433,-4.36031 l -0.47625,-0.4445 c -1.47108,1.14299 -2.38124,2.76224 -2.38124,4.80481 0,2.04258 0.91016,3.66183 2.38124,4.80482 z m 2.667,-5.02706 h 4.55081 v -0.65617 h -4.55081 z m 6.34998,0 h 4.55082 v -0.65617 h -4.55082 z m 7.21781,5.02706 c 1.47108,-1.14299 2.38125,-2.76224 2.38125,-4.80482 0,-2.04257 -0.91017,-3.66182 -2.38125,-4.80481 l -0.47625,0.4445 c 1.41817,1.19591 2.07433,2.58232 2.07433,4.36031 0,1.778 -0.65616,3.16441 -2.07433,4.36032 z m 9.10164,-0.16933 h 0.78317 l -3.47132,-9.20747 h -0.78317 z m 2.46592,-0.21167 h 5.07998 v -0.75141 h -5.07998 z m 6.34998,0 h 5.07998 v -0.75141 h -5.07998 z m 6.34998,0 h 5.07999 v -0.75141 h -5.07999 z m 6.34999,0 h 5.07998 v -0.75141 h -5.07998 z m 6.34998,0 h 5.07998 v -0.75141 h -5.07998 z m 6.34999,0 h 5.07998 v -0.75141 h -5.07998 z m 6.34998,0 h 5.07998 v -0.75141 h -5.07998 z"
           id="path28"
           style="fill:#276130;fill-opacity:1" /><path
           d="m 359.70515,482.84813 0.47625,-0.4445 c -1.41816,-1.19591 -2.07433,-2.58233 -2.07433,-4.36032 0,-1.778 0.65617,-3.16441 2.07433,-4.36032 l -0.47625,-0.4445 c -1.47108,1.143 -2.38124,2.76224 -2.38124,4.80482 0,2.04258 0.91016,3.66182 2.38124,4.80482 z m 2.40241,-0.381 h 5.07999 v -0.75142 h -5.07999 z m 6.34999,0 h 5.07998 v -0.75142 h -5.07998 z m 7.48239,0.381 c 1.47108,-1.143 2.38125,-2.76224 2.38125,-4.80482 0,-2.04258 -0.91017,-3.66182 -2.38125,-4.80482 l -0.47625,0.4445 c 1.41817,1.19591 2.07433,2.58232 2.07433,4.36032 0,1.77799 -0.65616,3.16441 -2.07433,4.36032 z m 9.10164,-0.16934 h 0.78317 l -3.47132,-9.20747 h -0.78317 z m 48.04822,0.16934 c 1.47108,-1.143 2.38124,-2.76224 2.38124,-4.80482 0,-2.04258 -0.91016,-3.66182 -2.38124,-4.80482 l -0.47625,0.4445 c 1.41816,1.19591 2.07433,2.58232 2.07433,4.36032 0,1.77799 -0.65617,3.16441 -2.07433,4.36032 z m 9.10163,-0.16934 h 0.78317 l -3.47132,-9.20747 h -0.78317 z m 2.87867,0 h 0.78317 l 3.47132,-9.20747 h -0.78317 z m 9.8213,0 h 0.78316 l -3.47132,-9.20747 h -0.78316 z"
           id="path29"
           style="fill:#276130;fill-opacity:1" /><path
           d="m 383.30592,496.86042 h 0.78317 v -10.5833 h -0.78317 z m 6.34999,0 h 0.78316 v -10.5833 h -0.78316 z m 4.46615,-5.81024 h 4.55082 v -0.65616 h -4.55082 z m 6.34999,0 h 4.55081 v -0.65616 h -4.55081 z m 6.34998,0 h 4.55082 v -0.65616 h -4.55082 z m 6.34998,0 h 4.55082 v -0.65616 h -4.55082 z m 6.65691,3.16441 h 1.12183 l 0.5715,-2.45532 c 0.0847,-0.35984 0.16933,-0.86784 0.254,-1.524 h 0.0423 c 0.0847,0.65616 0.16933,1.16416 0.254,1.524 l 0.59266,2.45532 h 1.12183 l 1.10067,-5.14348 h -0.80434 l -0.61383,2.98449 c -0.0953,0.48683 -0.14816,0.93133 -0.23283,1.41816 h -0.0423 c -0.0635,-0.48683 -0.20109,-0.93133 -0.3175,-1.41816 l -0.61383,-2.66699 h -0.86783 l -0.635,2.66699 c -0.11642,0.47625 -0.23283,0.93133 -0.29633,1.41816 h -0.0423 c -0.0635,-0.48683 -0.13758,-0.93133 -0.23283,-1.41816 l -0.61383,-2.98449 h -0.86783 z m 14.27688,2.64583 h 0.78316 v -10.5833 h -0.78316 z"
           id="path30"
           style="fill:#276130;fill-opacity:1" /><path
           d="m 383.30592,510.08954 h 0.78317 v -10.5833 h -0.78317 z m 6.34999,0 h 0.78316 v -10.5833 h -0.78316 z m 38.0999,0 h 0.78316 v -10.5833 h -0.78316 z m 6.34999,0 h 0.78316 v -10.5833 h -0.78316 z"
           id="path31"
           style="fill:#276130;fill-opacity:1" /></g></g></g></svg>
